<svg xmlns="http://www.w3.org/2000/svg" xmlns:xlink="http://www.w3.org/1999/xlink" viewBox="0 0 105 45" fill="#fff" fill-rule="evenodd" stroke="#000" stroke-linecap="round" stroke-linejoin="round"><use xlink:href="#A" x=".5" y=".5"/><symbol id="A" overflow="visible"><g stroke="none" fill="#000" fill-rule="nonzero"><path d="M103.272 10.36l-7.46 10.37 7.84 12.17h-8.1l-3.76-6.64-4.76 6.64h-8.2l9.03-12.2-6.92-10.34h8.27l2.67 4.78 3.1-4.78zm-32.38 0h6.77zm3.4 24.44a4.23 4.23 0 0 1 1.535 8.152 4.23 4.23 0 0 1-4.558-6.931 4.23 4.23 0 0 1 3.023-1.221zm-11.78-10.87l6.9 9h-8.52l-4.3-6.73v6.73h-6.76V10.36h8.86a8.48 8.48 0 0 1 6.16 2.14 6.83 6.83 0 0 1 1.88 5 6.39 6.39 0 0 1-4.21 6.42zm-1.84-6a2.34 2.34 0 0 0-.6-1.73c-.8-.8-2.34-.9-3.5-.92v5.3c2.9-.07 4.1-.84 4.1-2.7zM42.852 32.9h-6.73V16.25h-5.14v-5.9h17v5.9h-5.14zm-20.45-22.54h6.76V32.9h-6.76V13.47zM25.782 0a4.24 4.24 0 0 1 2.98 7.256 4.24 4.24 0 0 1-7.22-3.066A4.24 4.24 0 0 1 25.782 0zm-5.44 13.47l-3.56 5.72a5.89 5.89 0 0 0-5-2.73 5 5 0 0 0-4.88 5.18 5 5 0 0 0 4.92 5.14 5.89 5.89 0 0 0 5-2.73l3.56 5.76A11.82 11.82 0 0 1 0 21.69a11.82 11.82 0 0 1 20.342-8.22z"/><path d="M77.662 32.9h-6.76V10.36h6.76z"/></g></symbol></svg>