<?xml version="1.0" encoding="UTF-8" standalone="no"?>
<!DOCTYPE svg PUBLIC "-//W3C//DTD SVG 1.1//EN" "http://www.w3.org/Graphics/SVG/1.1/DTD/svg11.dtd">
<svg xmlns="http://www.w3.org/2000/svg" xmlns:xlink="http://www.w3.org/1999/xlink" version="1.1" width="566.928pt" height="566.93pt" viewBox="0 0 566.928 566.93">
<g enable-background="new">
<g id="Layer-1" data-name="2Color logo">
<clipPath id="cp0">
<path transform="matrix(1,0,0,-1,-311.811,704.41)" d="M 0 841.89 L 1190.551 841.89 L 1190.551 0 L 0 0 Z "/>
</clipPath>
<g clip-path="url(#cp0)">
<path transform="matrix(1,0,0,-1,533.07388,467.69029)" d="M 0 0 C -30.928 10.123 -83.787 20.339 -122.046 20.339 C -142.095 20.339 -161.979 18.71 -180.764 15.581 L -163.944 23.777 C -163.917 23.786 -163.899 23.795 -163.871 23.805 C -162.634 24.295 -161.406 24.796 -160.179 25.306 C -160.151 25.324 -160.124 25.333 -160.096 25.342 C -158.859 25.86 -157.631 26.388 -156.403 26.925 C -156.385 26.934 -156.358 26.942 -156.34 26.951 C -155.111 27.488 -153.893 28.034 -152.674 28.599 C -152.646 28.607 -152.619 28.616 -152.592 28.635 C -151.382 29.189 -150.182 29.753 -148.98 30.336 C -148.936 30.354 -148.898 30.372 -148.862 30.39 C -147.671 30.954 -146.497 31.537 -145.314 32.128 C -145.251 32.164 -145.188 32.2 -145.124 32.228 C -143.978 32.81 -142.832 33.392 -141.694 33.992 C -141.595 34.038 -141.504 34.093 -141.403 34.147 C -140.303 34.729 -139.193 35.312 -138.102 35.912 C -137.965 35.993 -137.828 36.066 -137.691 36.14 C -136.637 36.721 -135.591 37.304 -134.545 37.904 C -134.354 38.014 -134.172 38.122 -133.989 38.223 C -132.998 38.795 -131.998 39.368 -131.016 39.96 C -130.779 40.097 -130.533 40.251 -130.297 40.387 C -129.369 40.951 -128.44 41.506 -127.522 42.079 C -127.222 42.261 -126.922 42.452 -126.621 42.634 C -125.768 43.17 -124.911 43.708 -124.057 44.262 C -123.684 44.499 -123.319 44.744 -122.955 44.98 C -122.174 45.49 -121.392 45.99 -120.618 46.509 C -120.163 46.809 -119.718 47.128 -119.263 47.428 C -118.58 47.892 -117.898 48.355 -117.216 48.82 C -116.661 49.211 -116.106 49.611 -115.552 50.002 C -114.979 50.402 -114.414 50.803 -113.851 51.212 C -113.15 51.712 -112.458 52.222 -111.768 52.731 C -111.349 53.04 -110.931 53.35 -110.512 53.658 C -109.402 54.486 -108.302 55.323 -107.201 56.179 C -107.155 56.215 -107.128 56.261 -107.083 56.297 C -65.084 54.305 -15.482 44.608 17.093 34.738 L -8.978 25.597 Z M -249.605 45.126 C -279.424 45.126 -308.204 39.605 -332.955 29.153 C -351.366 36.439 -368.75 46.117 -384.705 57.979 C -376.018 62.228 -366.857 66.039 -357.315 69.396 C -353.413 70.778 -349.447 72.07 -345.427 73.289 C -342.753 74.107 -340.051 74.891 -337.331 75.627 C -336.494 75.854 -335.657 76.082 -334.811 76.299 C -334.002 76.519 -333.192 76.728 -332.382 76.928 C -331.837 77.073 -331.281 77.219 -330.727 77.346 L -330.718 77.355 C -322.003 79.529 -313.071 81.357 -303.983 82.813 C -303.282 82.932 -302.574 83.041 -301.864 83.141 C -300.554 83.349 -299.235 83.55 -297.916 83.723 C -296.134 83.986 -294.351 84.223 -292.558 84.441 C -287.638 85.068 -282.68 85.588 -277.694 85.987 C -277.377 86.015 -277.058 86.042 -276.74 86.07 C -274.603 86.233 -272.464 86.388 -270.318 86.506 C -268.98 86.597 -267.644 86.67 -266.298 86.725 C -260.757 86.997 -255.19 87.134 -249.605 87.134 C -246.485 87.134 -243.374 87.088 -240.264 87.006 C -239.145 86.979 -238.025 86.943 -236.915 86.896 C -233.531 86.778 -230.157 86.605 -226.791 86.388 C -221.897 86.06 -217.021 85.633 -212.183 85.097 C -211.336 85.005 -210.499 84.914 -209.662 84.813 C -208.07 84.633 -206.479 84.432 -204.896 84.223 L -204.887 84.223 C -203.432 84.031 -201.994 83.831 -200.549 83.622 C -199.92 83.541 -199.302 83.44 -198.683 83.341 C -190.097 82.067 -181.646 80.447 -173.368 78.52 C -172.358 78.292 -171.357 78.056 -170.357 77.811 C -168.92 77.464 -167.51 77.109 -166.092 76.736 L -166.082 76.736 C -165.854 76.682 -165.627 76.627 -165.399 76.563 C -162.816 75.891 -160.251 75.189 -157.704 74.453 C -153.547 73.252 -149.444 71.971 -145.406 70.605 C -144.632 70.351 -143.859 70.078 -143.096 69.805 L -143.086 69.805 C -142.285 69.541 -141.494 69.259 -140.703 68.978 C -133.771 66.494 -127.04 63.773 -120.555 60.817 C -118.517 59.899 -116.506 58.953 -114.515 57.979 C -114.597 57.916 -114.688 57.853 -114.769 57.798 C -130.643 46.019 -147.944 36.403 -166.264 29.153 C -191.015 39.605 -219.796 45.126 -249.605 45.126 M -377.173 20.339 C -415.442 20.339 -468.292 10.123 -499.21 0 L -490.241 25.597 L -516.312 34.738 C -483.737 44.608 -434.135 54.305 -392.137 56.297 C -392.101 56.261 -392.064 56.215 -392.019 56.179 C -390.918 55.314 -389.799 54.468 -388.681 53.641 C -388.252 53.313 -387.825 53.004 -387.397 52.695 C -386.706 52.176 -386.015 51.667 -385.314 51.166 C -384.741 50.758 -384.168 50.356 -383.595 49.947 C -383.021 49.548 -382.468 49.146 -381.894 48.747 C -381.202 48.265 -380.494 47.801 -379.793 47.318 C -379.347 47.019 -378.901 46.709 -378.447 46.409 C -377.601 45.845 -376.746 45.291 -375.891 44.735 C -375.581 44.535 -375.272 44.326 -374.963 44.126 C -373.989 43.508 -373.016 42.897 -372.033 42.288 C -371.833 42.161 -371.643 42.033 -371.442 41.916 C -370.378 41.261 -369.314 40.623 -368.249 39.986 C -368.122 39.914 -368.004 39.833 -367.886 39.759 C -366.749 39.096 -365.611 38.432 -364.466 37.786 C -364.411 37.75 -364.348 37.713 -364.283 37.677 C -363.083 36.994 -361.873 36.321 -360.663 35.666 C -360.663 35.666 -360.663 35.657 -360.654 35.657 C -352.131 31.018 -343.325 26.916 -334.274 23.377 L -318.829 15.645 C -337.503 18.738 -357.262 20.339 -377.173 20.339 M -401.133 73.426 C -404.216 77.082 -406.427 80.902 -407.991 84.277 C -409.356 87.225 -410.229 89.835 -410.757 91.719 C -410.93 92.301 -411.058 92.819 -411.166 93.256 C -407.136 93.492 -403.289 93.419 -399.642 93.028 C -398.095 92.864 -396.594 92.646 -395.13 92.364 C -393.092 91.982 -391.118 91.491 -389.217 90.891 C -388.743 90.745 -388.261 90.591 -387.798 90.426 C -380.329 87.834 -373.935 83.55 -368.658 77.592 C -368.432 77.337 -368.214 77.073 -367.995 76.818 C -366.867 75.49 -365.875 74.153 -364.975 72.834 C -365.229 72.733 -365.484 72.643 -365.738 72.543 C -365.966 72.452 -366.193 72.37 -366.421 72.27 C -366.749 72.151 -367.066 72.033 -367.386 71.897 C -367.613 71.824 -367.841 71.733 -368.068 71.643 L -368.059 71.633 C -368.531 71.461 -369.004 71.278 -369.469 71.088 C -369.823 70.95 -370.188 70.806 -370.542 70.66 C -371.105 70.441 -371.66 70.214 -372.216 69.987 C -372.324 69.941 -372.434 69.896 -372.543 69.851 C -372.925 69.687 -373.308 69.532 -373.681 69.368 C -373.853 69.305 -374.017 69.231 -374.189 69.159 C -374.498 69.041 -374.799 68.904 -375.107 68.776 C -375.618 68.567 -376.127 68.35 -376.637 68.122 C -377.282 67.841 -377.928 67.559 -378.574 67.275 C -379.61 66.821 -380.63 66.357 -381.648 65.894 C -384.204 64.72 -386.725 63.52 -389.198 62.282 C -388.752 62.519 -388.308 62.737 -387.861 62.955 C -392.919 65.456 -397.349 68.932 -401.133 73.426 M -412.559 98.141 C -412.94 98.131 -413.349 98.031 -413.75 97.877 L -414.022 97.758 C -414.351 97.612 -414.641 97.422 -414.923 97.186 L -415.078 97.085 L -415.187 96.949 L -415.405 96.785 L -415.532 96.539 C -415.732 96.304 -415.905 95.984 -416.052 95.603 C -416.114 95.484 -416.142 95.357 -416.179 95.238 C -416.197 95.166 -416.215 95.084 -416.232 95.002 C -424.747 100.806 -430.751 108.547 -434.171 118.18 C -434.326 118.616 -434.472 119.044 -434.607 119.48 C -434.753 119.908 -434.88 120.345 -435.008 120.771 C -435.09 121.045 -435.172 121.326 -435.244 121.6 C -435.309 121.827 -435.371 122.055 -435.427 122.273 C -428.604 125.093 -422.019 128.513 -415.659 132.524 L -415.65 132.524 C -414.305 131.516 -413.014 130.45 -411.785 129.332 C -411.566 129.131 -411.349 128.939 -411.139 128.74 C -411.357 128.949 -411.576 129.158 -411.794 129.358 C -411.349 128.959 -410.902 128.549 -410.476 128.131 C -410.438 128.094 -410.402 128.059 -410.366 128.013 C -410.402 128.04 -410.438 128.076 -410.476 128.113 C -410.411 128.059 -410.356 127.994 -410.293 127.932 C -409.929 127.586 -409.574 127.23 -409.22 126.867 L -409.21 126.867 C -408.938 126.584 -408.665 126.294 -408.401 126.002 C -408.393 126.002 -408.383 125.994 -408.393 125.984 C -408.128 125.693 -407.864 125.402 -407.601 125.111 C -407.337 124.82 -407.082 124.52 -406.837 124.22 L -406.837 124.211 C -406.764 124.119 -406.682 124.037 -406.618 123.947 C -406.609 123.938 -406.609 123.928 -406.6 123.928 C -406.6 123.92 -406.591 123.92 -406.591 123.91 L -406.555 123.874 C -406.391 123.691 -406.236 123.492 -406.091 123.301 L -406.091 123.292 C -406.018 123.201 -405.944 123.119 -405.881 123.027 C -405.854 123.001 -405.827 122.965 -405.809 122.938 C -405.799 122.928 -405.799 122.928 -405.79 122.918 C -405.645 122.736 -405.499 122.555 -405.363 122.363 C -404.999 121.891 -404.645 121.409 -404.308 120.918 C -403.698 120.053 -403.115 119.171 -402.562 118.262 L -402.562 118.243 C -402.624 118.079 -402.68 117.907 -402.725 117.743 C -402.77 117.634 -402.789 117.516 -402.798 117.406 L -402.834 117.206 C -402.861 116.897 -402.861 116.588 -402.825 116.279 L -402.825 116.26 C -402.798 115.868 -402.743 115.214 -402.643 114.35 C -402.261 111.075 -401.151 104.744 -397.994 97.813 C -402.334 98.358 -407.073 98.505 -412.248 98.149 C -412.357 98.141 -412.458 98.149 -412.559 98.141 M -439.829 126.83 C -444.886 136.828 -450.98 150.383 -454.793 161.375 C -443.595 163.886 -428.504 170.271 -415.178 178.203 C -406.437 183.416 -391.81 193.295 -383.341 205.384 C -381.039 197.725 -377.837 188.547 -374.362 181.232 C -374.526 180.996 -374.689 180.77 -374.844 180.541 C -375.817 179.168 -376.791 177.813 -377.782 176.484 C -378.983 174.865 -380.193 173.282 -381.421 171.736 C -383.213 169.472 -385.042 167.288 -386.896 165.158 C -387.834 164.086 -388.78 163.03 -389.754 161.992 C -391.054 160.564 -392.382 159.172 -393.737 157.808 C -398.822 152.649 -404.135 147.991 -409.647 143.824 C -411.357 142.532 -413.095 141.286 -414.851 140.094 C -416.888 138.693 -418.943 137.374 -421.036 136.119 C -426.084 133.07 -431.288 130.404 -436.627 128.141 C -437.691 127.686 -438.756 127.248 -439.829 126.83 M -463.56 196.81 C -456.272 195.727 -448.832 195.154 -441.318 195.08 C -441.437 189.096 -440.519 182.41 -437.589 175.633 C -437.599 175.497 -437.607 175.369 -437.625 175.232 C -437.698 174.551 -437.779 173.877 -437.88 173.223 C -444.557 170.375 -450.951 168.22 -456.318 167.047 C -462.432 176.279 -464.86 186.23 -463.56 196.81 M -436.406 192.971 C -436.425 193.699 -436.425 194.408 -436.415 195.108 C -435.779 195.108 -435.143 195.127 -434.496 195.154 C -427.928 195.336 -421.324 195.9 -414.702 196.837 C -413.02 194.008 -411.664 191.061 -410.655 188.014 C -413.028 186.402 -415.54 184.811 -418.168 183.246 C -422.726 180.526 -427.501 177.998 -432.223 175.77 C -432.313 175.725 -432.413 175.678 -432.504 175.633 C -432.486 175.832 -432.468 176.043 -432.449 176.242 C -434.924 181.418 -436.243 187.012 -436.406 192.971 M -395.002 200.717 C -398.213 197.506 -402.015 194.285 -406.299 191.121 C -407.382 193.267 -408.246 195.486 -408.929 197.77 C -404.271 198.57 -399.632 199.544 -395.002 200.717 M -465.627 222.148 C -465.689 224.24 -465.727 226.387 -465.736 228.543 C -463.589 228.461 -461.441 228.397 -459.286 228.397 C -443.714 228.397 -427.83 230.508 -412.085 234.665 C -404.617 236.639 -397.357 239.141 -389.035 242.625 C -388.808 231.527 -387.37 220.511 -384.714 209.786 C -385.051 209.677 -385.388 209.559 -385.724 209.449 C -403.534 203.811 -421.655 200.944 -439.584 200.944 C -447.943 200.944 -456.211 201.582 -464.207 202.837 C -464.953 209.25 -465.426 215.735 -465.627 222.148 M -461.097 273.743 C -430.505 256.76 -412.413 250.947 -395.257 246.418 C -401.715 243.861 -407.582 241.924 -413.586 240.341 C -431.024 235.738 -448.644 233.729 -465.754 234.401 C -465.335 247.646 -463.771 260.854 -461.097 273.743 M -454.793 299.467 C -449.689 308.791 -442.385 314.504 -439.393 316.587 C -431.578 299.54 -431.314 283.74 -438.602 269.65 C -438.737 269.376 -438.883 269.112 -439.028 268.85 C -445.359 271.924 -452.327 275.553 -460.087 279.91 C -459.932 286.751 -458.177 293.281 -454.793 299.467 M -433.652 340.583 C -427.403 349.188 -419.435 353.918 -416.197 355.602 C -411.012 338.9 -412.186 324.119 -419.689 311.611 C -422.464 309.492 -425.948 306.463 -429.368 302.506 C -430.414 307.799 -432.243 313.457 -435.063 319.479 C -435.107 319.563 -435.144 319.68 -435.19 319.762 C -435.345 320.125 -435.59 320.489 -435.899 320.826 L -436.117 321.045 C -436.363 321.281 -436.673 321.508 -436.99 321.69 L -437.154 321.809 L -437.327 321.854 L -437.563 322 L -437.847 322.035 C -438.155 322.135 -438.528 322.182 -438.956 322.19 C -439.083 322.19 -439.22 322.182 -439.347 322.172 C -439.574 322.145 -439.865 322.108 -440.12 322.035 C -440.238 322.008 -440.348 321.963 -440.466 321.927 L -440.647 321.854 C -440.948 321.727 -441.229 321.571 -441.484 321.371 C -440.502 328.321 -437.9 334.743 -433.652 340.583 M -399.941 379.024 C -391.264 385.184 -382.222 387.12 -378.61 387.693 C -378.883 375.723 -381.703 365.562 -387.016 357.303 C -387.225 357.257 -387.424 357.203 -387.615 357.12 L -387.634 357.12 C -389.835 356.393 -399.404 352.945 -408.528 344.877 C -409.092 348.979 -410.065 353.318 -411.549 357.912 C -411.566 358.012 -411.594 358.121 -411.63 358.222 C -411.739 358.594 -411.931 358.994 -412.186 359.358 L -412.376 359.613 C -412.604 359.885 -412.877 360.141 -413.186 360.359 L -413.313 360.496 L -413.468 360.567 L -413.695 360.74 L -413.958 360.813 C -414.141 360.896 -414.341 360.959 -414.559 361.014 C -411.411 368.309 -406.536 374.33 -399.941 379.024 M -366.985 401.42 C -355.824 405.531 -345.499 404.977 -341.442 404.53 C -343.316 398.199 -345.727 392.533 -348.665 387.529 C -358.135 384.027 -368.031 377.232 -375.29 364.424 C -376.255 364.043 -377.2 363.706 -378.146 363.396 C -375.372 370.236 -373.599 378.47 -373.462 388.395 C -373.462 388.502 -373.444 388.604 -373.444 388.712 C -373.426 389.104 -373.489 389.549 -373.616 389.967 L -373.707 390.268 C -373.835 390.604 -374.017 390.932 -374.226 391.241 L -374.317 391.404 L -374.453 391.523 L -374.607 391.76 L -374.826 391.924 C -375.081 392.141 -375.382 392.342 -375.772 392.541 C -375.882 392.605 -376 392.65 -376.137 392.696 C -376.345 392.787 -376.628 392.859 -376.891 392.915 C -377.019 392.933 -377.128 392.951 -377.237 392.96 L -377.455 392.988 C -377.773 392.996 -378.092 392.969 -378.41 392.915 L -378.429 392.906 C -379.11 392.823 -380.529 392.605 -382.458 392.168 C -378.001 396.172 -372.844 399.264 -366.985 401.42 M -342.771 421.914 C -338.632 417.438 -331.1 411.826 -321.394 406.068 C -326.57 401.02 -332.354 397.281 -338.723 394.88 C -337.612 397.654 -336.594 400.61 -335.685 403.775 C -335.657 403.894 -335.603 403.994 -335.575 404.111 C -335.448 404.539 -335.384 405.021 -335.394 405.504 L -335.402 405.858 C -335.448 406.268 -335.538 406.678 -335.685 407.077 L -335.739 407.269 L -335.821 407.45 L -335.931 407.742 L -336.13 407.979 C -336.33 408.287 -336.612 408.605 -336.958 408.915 C -337.067 409.024 -337.186 409.106 -337.304 409.197 C -337.514 409.342 -337.786 409.507 -338.059 409.652 C -338.177 409.707 -338.304 409.77 -338.423 409.807 L -338.641 409.889 C -338.978 410.007 -339.342 410.07 -339.696 410.098 L -339.715 410.106 C -341.925 410.406 -351.221 411.408 -362.301 408.752 C -356.67 415.02 -350.147 419.422 -342.771 421.914 M -290.129 439.479 C -290.176 439.242 -290.193 438.997 -290.166 438.751 C -289.875 435.385 -285.646 420.186 -278.795 406.023 C -275.403 399 -271.892 393.242 -268.28 388.758 C -298.416 397.963 -327.197 414.127 -337.677 424.57 C -326.752 431.183 -305.012 437.514 -290.129 439.479 M -249.242 444.891 C -231.722 444.891 -218.214 441.89 -214.293 438.833 C -217.294 428.264 -233.004 382.709 -248.504 382.709 C -267.298 382.709 -282.197 428.254 -284.227 437.924 C -278.769 442.182 -265.369 444.891 -249.242 444.891 M -213.355 423.57 C -211.673 428.154 -210.409 432.029 -209.645 434.467 C -209.208 435.84 -208.88 436.941 -208.662 437.695 C -208.563 438.051 -208.462 438.396 -208.38 438.742 C -193.935 436.213 -175.415 430.51 -165.609 424.579 C -171.631 418.604 -183.783 410.67 -197.855 403.63 C -208.197 398.454 -218.95 394.006 -229.492 390.495 C -223.016 399.691 -217.521 412.208 -213.355 423.57 M -160.515 421.914 C -153.138 419.422 -146.606 415.02 -140.976 408.752 C -152.064 411.408 -161.352 410.406 -163.571 410.106 L -163.58 410.098 C -163.944 410.07 -164.299 410.007 -164.636 409.889 L -164.863 409.807 C -164.981 409.77 -165.099 409.707 -165.217 409.652 C -165.5 409.507 -165.764 409.342 -165.982 409.197 C -166.092 409.106 -166.209 409.024 -166.319 408.915 C -166.673 408.605 -166.946 408.287 -167.146 407.979 L -167.355 407.742 L -167.456 407.45 L -167.537 407.269 L -167.601 407.077 C -167.737 406.678 -167.838 406.268 -167.873 405.858 L -167.892 405.504 C -167.9 405.021 -167.838 404.539 -167.71 404.111 C -167.684 403.994 -167.628 403.894 -167.592 403.775 C -166.691 400.61 -165.672 397.654 -164.554 394.88 C -165.19 395.116 -165.817 395.361 -166.427 395.625 C -171.367 397.727 -175.924 400.664 -180.118 404.412 C -180.709 404.949 -181.301 405.504 -181.882 406.068 C -172.177 411.826 -164.654 417.438 -160.515 421.914 M -136.301 401.42 C -130.442 399.264 -125.275 396.172 -120.818 392.168 C -122.756 392.605 -124.175 392.823 -124.848 392.906 L -124.875 392.915 C -125.185 392.969 -125.512 392.996 -125.821 392.988 L -126.049 392.96 C -126.158 392.951 -126.268 392.933 -126.395 392.915 C -126.649 392.859 -126.931 392.787 -127.141 392.696 C -127.276 392.65 -127.395 392.605 -127.514 392.541 C -127.896 392.342 -128.195 392.141 -128.449 391.924 L -128.677 391.76 L -128.832 391.523 L -128.96 391.404 L -129.051 391.241 C -129.26 390.932 -129.441 390.604 -129.578 390.268 L -129.66 389.967 C -129.797 389.549 -129.851 389.104 -129.833 388.712 C -129.833 388.604 -129.824 388.502 -129.814 388.395 C -129.688 378.47 -127.913 370.236 -125.13 363.396 C -126.076 363.706 -127.031 364.043 -127.995 364.424 C -135.245 377.232 -145.151 384.027 -154.611 387.529 C -157.549 392.533 -159.96 398.199 -161.834 404.53 C -157.785 404.977 -147.453 405.531 -136.301 401.42 M -103.344 379.024 C -96.749 374.33 -91.873 368.309 -88.726 361.014 C -88.936 360.959 -89.136 360.896 -89.317 360.813 L -89.581 360.74 L -89.809 360.567 L -89.973 360.496 L -90.1 360.359 C -90.409 360.141 -90.673 359.885 -90.909 359.613 L -91.092 359.358 C -91.355 358.994 -91.536 358.594 -91.655 358.222 C -91.683 358.121 -91.71 358.012 -91.737 357.912 C -93.211 353.318 -94.192 348.979 -94.757 344.877 C -103.872 352.945 -113.44 356.393 -115.651 357.12 L -115.66 357.12 C -115.86 357.203 -116.062 357.257 -116.261 357.303 C -121.573 365.562 -124.402 375.723 -124.676 387.693 C -121.064 387.12 -112.022 385.184 -103.344 379.024 M -69.624 340.583 C -65.385 334.743 -62.774 328.321 -61.801 321.371 C -62.056 321.571 -62.328 321.727 -62.629 321.854 L -62.82 321.927 C -62.929 321.963 -63.037 322.008 -63.156 322.035 C -63.42 322.108 -63.702 322.145 -63.93 322.172 C -64.057 322.182 -64.202 322.19 -64.33 322.19 C -64.748 322.182 -65.121 322.135 -65.431 322.035 L -65.712 322 L -65.958 321.854 L -66.122 321.809 L -66.285 321.69 C -66.604 321.508 -66.913 321.281 -67.168 321.045 L -67.386 320.826 C -67.687 320.489 -67.932 320.125 -68.096 319.762 C -68.141 319.68 -68.168 319.563 -68.214 319.479 C -71.043 313.457 -72.862 307.799 -73.918 302.506 C -77.329 306.463 -80.813 309.492 -83.596 311.611 C -91.092 324.119 -92.273 338.9 -87.089 355.602 C -83.841 353.918 -75.873 349.188 -69.624 340.583 M -48.493 299.467 C -45.109 293.281 -43.354 286.751 -43.189 279.91 C -50.958 275.553 -57.916 271.924 -64.247 268.85 C -64.393 269.112 -64.539 269.376 -64.685 269.65 C -71.971 283.74 -71.697 299.54 -63.893 316.587 C -60.9 314.504 -53.596 308.791 -48.493 299.467 M -37.532 234.401 C -54.642 233.729 -72.253 235.738 -89.699 240.341 C -95.694 241.924 -101.562 243.861 -108.02 246.418 C -90.873 250.947 -72.771 256.76 -42.188 273.743 C -39.506 260.854 -37.94 247.646 -37.532 234.401 M -37.659 222.139 C -37.85 215.735 -38.322 209.25 -39.078 202.837 C -47.064 201.582 -55.343 200.944 -63.702 200.944 C -81.631 200.944 -99.751 203.811 -117.544 209.449 C -117.89 209.559 -118.227 209.677 -118.571 209.786 C -115.906 220.511 -114.47 231.527 -114.242 242.625 C -105.928 239.141 -98.669 236.639 -91.201 234.665 C -75.454 230.508 -59.572 228.397 -43.999 228.397 C -41.843 228.397 -39.688 228.461 -37.55 228.543 C -37.559 226.396 -37.586 224.25 -37.659 222.139 M -46.955 167.052 C -52.322 168.225 -58.708 170.391 -65.385 173.236 C -65.476 173.892 -65.566 174.557 -65.64 175.238 C -65.648 175.375 -65.658 175.52 -65.667 175.666 C -62.747 182.443 -61.828 189.11 -61.946 195.086 C -54.415 195.169 -46.955 195.742 -39.697 196.807 C -38.405 186.236 -40.843 176.284 -46.955 167.052 M -92.583 188.027 C -91.564 191.084 -90.228 194.031 -88.545 196.86 C -81.303 195.842 -74.072 195.24 -66.85 195.104 C -66.831 194.404 -66.831 193.695 -66.85 192.967 C -67.013 186.826 -68.424 181.087 -71.043 175.775 C -75.764 178.004 -80.53 180.523 -85.096 183.243 C -87.726 184.816 -90.209 186.408 -92.583 188.027 M -108.283 200.717 C -103.653 199.544 -99.006 198.57 -94.357 197.77 C -95.03 195.486 -95.903 193.267 -96.977 191.121 C -101.27 194.285 -105.072 197.506 -108.283 200.717 M -60.637 132.543 C -61.602 130.551 -62.547 128.631 -63.457 126.83 C -64.53 127.248 -65.594 127.686 -66.658 128.141 C -71.998 130.404 -77.192 133.063 -82.24 136.109 C -83.996 137.164 -85.725 138.266 -87.435 139.42 C -87.771 139.63 -88.107 139.857 -88.436 140.094 C -90.19 141.286 -91.918 142.523 -93.629 143.824 C -99.142 147.982 -104.453 152.649 -109.548 157.808 C -110.894 159.172 -112.222 160.564 -113.522 161.992 C -114.496 163.03 -115.442 164.086 -116.379 165.158 C -118.235 167.288 -120.063 169.48 -121.864 171.746 C -123.084 173.291 -124.302 174.874 -125.493 176.484 C -126.484 177.813 -127.459 179.168 -128.432 180.541 C -128.587 180.77 -128.75 180.996 -128.914 181.232 C -125.448 188.547 -122.247 197.725 -119.937 205.384 C -111.467 193.295 -96.84 183.416 -88.099 178.203 C -74.781 170.271 -59.69 163.886 -48.493 161.375 C -51.622 152.357 -56.279 141.623 -60.637 132.543 M -69.114 118.18 C -72.534 108.547 -78.539 100.806 -87.043 95.002 C -87.062 95.084 -87.089 95.166 -87.107 95.238 C -87.143 95.357 -87.171 95.484 -87.226 95.603 C -87.37 95.984 -87.544 96.304 -87.743 96.539 L -87.871 96.785 L -88.09 96.949 L -88.198 97.085 L -88.353 97.186 C -88.636 97.422 -88.936 97.612 -89.254 97.758 L -89.536 97.877 C -89.936 98.031 -90.346 98.131 -90.719 98.141 C -90.828 98.149 -90.927 98.141 -91.027 98.149 C -96.204 98.505 -100.943 98.358 -105.281 97.804 C -102.125 104.744 -101.015 111.093 -100.633 114.368 C -100.524 115.224 -100.479 115.868 -100.451 116.26 L -100.461 116.279 C -100.415 116.588 -100.415 116.897 -100.451 117.206 L -100.488 117.406 C -100.497 117.516 -100.515 117.634 -100.551 117.743 C -100.598 117.915 -100.66 118.089 -100.725 118.252 C -98.214 122.363 -95.14 126.075 -91.501 129.341 L -91.501 129.35 C -90.281 130.46 -88.99 131.524 -87.635 132.524 C -81.276 128.513 -74.682 125.093 -67.859 122.273 C -68.205 120.927 -68.623 119.563 -69.114 118.18 M -152.438 80.894 C -143.377 84.777 -137.046 90.227 -132.625 96.094 C -129.297 100.514 -127.049 105.172 -125.549 109.593 C -125.385 110.075 -125.229 110.548 -125.085 111.021 C -120.127 113.186 -114.569 114.659 -108.456 115.424 L -108.456 115.433 C -108.092 115.478 -107.719 115.523 -107.347 115.561 C -106.728 115.633 -106.101 115.696 -105.473 115.75 C -105.609 114.168 -105.964 111.493 -106.792 108.219 C -107.665 104.845 -109.057 100.833 -111.286 96.748 C -112.112 96.558 -112.923 96.349 -113.724 96.121 C -127.887 92.2 -136.81 83.649 -142.268 75.709 C -145.852 76.946 -149.48 78.11 -153.156 79.211 C -153.037 79.783 -152.801 80.348 -152.438 80.894 M -169.911 100.996 C -170.675 100.496 -171.467 100.022 -172.286 99.567 C -177.616 98.922 -182.355 97.722 -186.559 96.13 C -179.181 106.035 -177.07 116.487 -176.697 118.707 L -176.697 118.726 C -176.624 119.025 -176.579 119.335 -176.588 119.644 L -176.606 119.844 C -176.606 119.953 -176.615 120.081 -176.634 120.182 C -176.67 120.454 -176.742 120.717 -176.815 120.927 C -176.861 121.045 -176.888 121.172 -176.952 121.291 C -177.115 121.654 -177.307 121.973 -177.516 122.209 L -177.652 122.437 L -177.871 122.6 L -177.979 122.729 L -178.153 122.818 C -178.435 123.046 -178.744 123.219 -179.071 123.355 L -179.345 123.465 C -179.698 123.592 -180.054 123.655 -180.391 123.664 C -175.078 131.178 -167.474 136.919 -157.678 140.831 L -157.678 140.84 C -155.985 141.514 -154.22 142.132 -152.392 142.705 L -152.383 142.705 C -151.709 142.914 -151.045 143.115 -150.354 143.307 C -150.117 140.84 -149.862 135.654 -151.036 129.441 C -151.373 127.613 -151.847 125.693 -152.474 123.729 C -152.729 122.918 -153.01 122.1 -153.329 121.281 C -153.893 119.826 -154.521 118.416 -155.211 117.052 L -155.211 117.043 C -158.577 110.475 -163.489 105.117 -169.911 100.996 M -191.47 88.435 L -191.461 88.435 C -185.793 91.636 -179.281 93.701 -171.958 94.62 L -170.784 94.757 C -169.475 94.893 -168.128 95.002 -166.764 95.065 C -165.809 95.111 -164.845 95.147 -163.871 95.156 C -164.254 92.882 -165.228 88.352 -167.556 83.149 L -167.564 83.149 C -167.628 83.168 -167.684 83.186 -167.746 83.194 C -169.692 83.677 -171.648 84.141 -173.613 84.586 C -179.627 85.951 -185.721 87.16 -191.897 88.188 C -191.751 88.271 -191.606 88.352 -191.47 88.435 M -228.174 94.502 C -227.61 95.502 -226.982 96.521 -226.3 97.558 C -225.472 98.795 -224.563 100.05 -223.554 101.307 C -223.489 101.387 -223.426 101.47 -223.353 101.542 C -222.37 102.743 -221.342 103.871 -220.27 104.935 C -216.167 109.038 -211.4 112.229 -206.006 114.504 C -200.903 116.66 -195.227 117.998 -189.005 118.498 C -187.194 118.652 -185.339 118.726 -183.429 118.734 C -182.874 118.744 -182.301 118.734 -181.736 118.726 C -182.419 115.323 -184.594 106.836 -190.715 98.786 C -190.787 98.686 -190.86 98.595 -190.934 98.495 C -191.916 97.221 -192.952 96.021 -194.053 94.893 C -196 92.864 -198.129 91.073 -200.421 89.517 C -203.469 89.953 -206.533 90.354 -209.617 90.699 C -216.121 91.455 -222.688 92.018 -229.293 92.392 C -228.956 93.073 -228.583 93.783 -228.174 94.502 M -273.574 101.251 C -274.457 102.524 -275.43 103.798 -276.494 105.072 L -276.366 105.081 C -267.38 124.51 -249.387 288.697 -249.387 288.697 C -249.387 288.697 -233.231 137.574 -223.989 108.146 C -225.427 106.7 -226.719 105.208 -227.883 103.716 L -227.892 103.716 C -239.044 108.474 -254.891 110.848 -273.574 101.251 M -275.202 94.675 C -273.774 95.529 -272.346 96.321 -270.918 97.04 C -258.146 103.508 -245.503 104.689 -233.24 100.532 C -232.403 100.25 -231.595 99.941 -230.803 99.623 C -232.058 97.668 -233.122 95.748 -234.014 93.938 C -236.615 93.646 -239.172 93.301 -241.346 92.893 C -244.093 92.955 -246.849 92.991 -249.605 92.991 C -255.945 92.991 -262.276 92.819 -268.571 92.473 C -270.336 92.382 -272.101 92.273 -273.856 92.146 C -274.866 92.082 -275.866 92.009 -276.877 91.928 C -277.276 92.318 -277.622 92.673 -277.913 92.982 C -277.013 93.574 -276.103 94.138 -275.202 94.675 M -348.073 117.043 L -348.073 117.052 C -348.765 118.416 -349.393 119.826 -349.957 121.281 C -350.266 122.1 -350.548 122.91 -350.812 123.719 C -351.439 125.685 -351.903 127.613 -352.249 129.441 C -353.413 135.654 -353.168 140.84 -352.922 143.307 C -352.24 143.115 -351.558 142.914 -350.894 142.705 C -349.065 142.141 -347.301 141.514 -345.6 140.84 C -335.803 136.919 -328.198 131.169 -322.886 123.664 C -323.222 123.655 -323.577 123.592 -323.932 123.465 L -324.204 123.355 C -324.541 123.219 -324.851 123.046 -325.133 122.818 L -325.296 122.729 L -325.405 122.6 L -325.633 122.437 L -325.76 122.209 C -325.979 121.973 -326.169 121.654 -326.334 121.291 C -326.388 121.172 -326.424 121.045 -326.461 120.927 C -326.533 120.717 -326.606 120.454 -326.643 120.182 C -326.67 120.081 -326.68 119.953 -326.68 119.844 L -326.697 119.644 C -326.697 119.335 -326.651 119.025 -326.579 118.726 L -326.579 118.707 C -326.206 116.487 -324.096 106.035 -316.719 96.13 C -320.93 97.73 -325.669 98.922 -331 99.567 C -331.81 100.022 -332.601 100.496 -333.365 100.996 C -339.796 105.117 -344.699 110.475 -348.073 117.043 M -377.019 134.371 L -377.21 134.344 C -377.563 134.289 -377.9 134.199 -378.237 134.043 L -378.42 133.989 L -378.556 133.898 L -378.811 133.789 L -378.992 133.599 C -379.256 133.416 -379.511 133.161 -379.766 132.834 C -379.847 132.734 -379.911 132.634 -379.975 132.524 C -380.093 132.334 -380.22 132.088 -380.329 131.842 C -380.385 131.742 -380.411 131.633 -380.438 131.533 L -380.503 131.332 C -380.575 131.033 -380.621 130.723 -380.611 130.414 L -380.621 130.396 C -380.729 128.886 -380.966 123.628 -379.675 116.915 C -384.841 118.798 -390.79 120.135 -397.621 120.717 C -399.979 124.646 -402.961 128.541 -406.754 132.207 C -407.41 133.898 -407.964 135.637 -408.419 137.428 C -401.77 142.25 -395.394 147.755 -389.308 153.932 C -387.634 152.34 -386.078 150.666 -384.659 148.92 C -383.149 144.088 -380.739 139.12 -377.019 134.371 M -352.377 148.301 C -352.467 148.336 -352.549 148.364 -352.641 148.383 C -353.004 148.491 -353.422 148.547 -353.851 148.528 L -354.149 148.51 C -354.505 148.473 -354.851 148.392 -355.188 148.255 L -355.369 148.219 L -355.514 148.128 L -355.77 148.036 L -355.969 147.855 C -356.242 147.691 -356.506 147.436 -356.771 147.127 C -356.86 147.036 -356.934 146.936 -357.007 146.826 C -357.134 146.645 -357.279 146.408 -357.389 146.172 C -357.452 146.071 -357.489 145.972 -357.525 145.862 L -357.598 145.672 C -357.68 145.371 -357.743 145.07 -357.753 144.752 L -357.762 144.743 C -357.98 142.979 -358.635 136.055 -356.86 127.53 C -360.309 129.404 -364.184 131.061 -368.54 132.415 C -369.051 132.889 -369.542 133.361 -370.014 133.853 C -375.391 139.339 -378.983 145.808 -380.757 153.195 C -380.938 153.959 -381.104 154.724 -381.248 155.506 C -381.657 157.717 -381.876 159.863 -381.958 161.893 C -378.793 165.559 -375.699 169.416 -372.697 173.482 C -362.573 166.906 -355.77 158.463 -352.377 148.301 M -121.318 161.902 C -121.41 159.863 -121.628 157.727 -122.037 155.506 C -122.183 154.724 -122.346 153.941 -122.528 153.177 C -124.312 145.799 -127.896 139.348 -133.253 133.871 C -133.735 133.38 -134.227 132.889 -134.744 132.415 C -139.102 131.061 -142.978 129.414 -146.415 127.539 C -144.643 136.063 -145.297 142.979 -145.516 144.743 L -145.524 144.752 C -145.542 145.07 -145.597 145.371 -145.679 145.672 L -145.761 145.862 C -145.788 145.972 -145.833 146.071 -145.888 146.172 C -145.997 146.408 -146.151 146.645 -146.27 146.826 C -146.342 146.936 -146.415 147.036 -146.516 147.127 C -146.771 147.436 -147.034 147.691 -147.315 147.855 L -147.507 148.036 L -147.762 148.128 L -147.907 148.219 L -148.099 148.255 C -148.426 148.392 -148.771 148.473 -149.126 148.51 L -149.427 148.528 C -149.862 148.547 -150.272 148.491 -150.646 148.383 C -150.736 148.364 -150.809 148.336 -150.9 148.301 C -147.516 158.473 -140.703 166.906 -130.578 173.492 C -127.595 169.434 -124.511 165.577 -121.318 161.911 Z M -122.665 130.396 L -122.665 130.414 C -122.665 130.723 -122.701 131.033 -122.783 131.332 L -122.846 131.533 C -122.865 131.633 -122.901 131.742 -122.946 131.842 C -123.056 132.088 -123.183 132.334 -123.301 132.524 C -123.365 132.634 -123.429 132.734 -123.52 132.834 C -123.774 133.161 -124.029 133.416 -124.293 133.599 L -124.476 133.789 L -124.721 133.898 L -124.866 133.989 L -125.049 134.043 C -125.375 134.199 -125.721 134.289 -126.076 134.344 L -126.258 134.371 C -122.528 139.13 -120.117 144.088 -118.608 148.928 L -118.608 148.938 C -117.188 150.676 -115.642 152.35 -113.969 153.941 C -107.901 147.755 -101.525 142.25 -94.857 137.428 C -95.312 135.645 -95.867 133.908 -96.521 132.215 C -100.324 128.549 -103.316 124.646 -105.663 120.708 C -112.495 120.135 -118.443 118.798 -123.611 116.906 C -122.319 123.628 -122.556 128.886 -122.665 130.396 M -183.52 390.395 L -183.538 390.386 C -183.875 390.368 -184.201 390.286 -184.521 390.158 L -184.712 390.076 C -184.83 390.049 -184.938 389.995 -185.048 389.932 C -185.293 389.794 -185.539 389.631 -185.73 389.484 C -185.839 389.403 -185.939 389.321 -186.039 389.221 C -186.357 388.931 -186.604 388.621 -186.767 388.321 L -186.958 388.103 L -187.049 387.82 L -187.121 387.666 L -187.168 387.475 C -187.286 387.103 -187.367 386.72 -187.396 386.338 L -187.396 386.02 C -187.385 385.564 -187.322 385.119 -187.186 384.729 C -187.168 384.627 -187.112 384.528 -187.076 384.419 C -185.803 380.453 -184.348 376.851 -182.746 373.558 C -194.718 374.913 -205.269 380.498 -214.247 390.213 C -205.232 393.834 -196.736 397.863 -189.178 401.947 C -187.158 401.456 -185.175 400.838 -183.256 400.064 C -178.645 396.025 -173.878 393.115 -169.166 391.031 C -169.065 390.941 -168.975 390.85 -168.875 390.759 C -176.252 391.469 -181.91 390.668 -183.52 390.395 M -152.164 371.146 L -152.173 371.138 C -152.51 371.184 -152.855 371.211 -153.192 371.184 L -153.41 371.156 C -153.528 371.146 -153.646 371.119 -153.774 371.092 C -154.048 371.028 -154.329 370.929 -154.557 370.838 C -154.693 370.783 -154.812 370.738 -154.93 370.674 C -155.32 370.455 -155.64 370.229 -155.885 369.982 L -156.121 369.801 L -156.285 369.555 L -156.412 369.437 L -156.494 369.246 C -156.722 368.918 -156.895 368.573 -157.013 368.209 L -157.104 367.9 C -157.223 367.445 -157.268 366.99 -157.24 366.572 C -157.231 366.463 -157.223 366.354 -157.213 366.244 C -156.977 360.95 -156.303 356.138 -155.284 351.744 C -167.592 358.084 -176.488 369.327 -181.764 385.283 C -178.017 385.82 -168.465 386.629 -158.013 383.154 C -148.917 380.115 -141.521 374.658 -135.863 366.863 C -143.732 370.137 -150.382 370.965 -152.164 371.146 M -123.192 336.6 C -126.694 338.272 -129.396 339.146 -130.415 339.445 L -130.442 339.438 C -130.733 339.547 -131.043 339.628 -131.37 339.664 L -131.579 339.674 C -131.697 339.682 -131.815 339.691 -131.925 339.682 C -132.207 339.664 -132.489 339.637 -132.717 339.583 C -132.834 339.555 -132.972 339.537 -133.099 339.491 C -133.489 339.373 -133.845 339.209 -134.117 339.01 L -134.372 338.91 L -134.563 338.699 L -134.709 338.6 L -134.827 338.445 C -135.091 338.182 -135.309 337.882 -135.49 337.572 L -135.637 337.29 C -135.836 336.891 -135.945 336.473 -136 336.08 C -136.019 335.971 -136.019 335.862 -136.036 335.762 C -136.437 333.015 -136.691 330.377 -136.81 327.84 C -145.897 337.145 -150.927 349.834 -151.791 365.68 C -148.007 365.207 -138.456 363.487 -129.178 357.313 C -126.604 355.602 -124.274 353.691 -122.164 351.6 C -123.011 346.223 -123.319 341.229 -123.192 336.6 M -111.357 322.309 C -105.309 316.359 -101.37 309.246 -99.523 301.041 C -99.742 300.141 -99.951 299.25 -100.133 298.367 C -102.871 301.188 -105.127 302.951 -105.982 303.588 L -105.991 303.598 C -106.236 303.815 -106.51 303.998 -106.801 304.133 L -106.991 304.217 C -107.101 304.271 -107.201 304.315 -107.319 304.344 C -107.574 304.434 -107.855 304.488 -108.083 304.534 C -108.21 304.553 -108.338 304.57 -108.474 304.58 C -108.902 304.598 -109.274 304.57 -109.594 304.488 L -109.875 304.461 L -110.13 304.344 L -110.293 304.298 L -110.458 304.197 C -110.793 304.025 -111.104 303.844 -111.395 303.605 L -111.621 303.396 C -111.94 303.079 -112.204 302.733 -112.377 302.379 C -112.44 302.297 -112.477 302.188 -112.522 302.105 C -115.006 297.566 -116.871 293.209 -118.217 289.043 L -118.253 289.079 C -129.286 300.477 -133.607 315.678 -131.061 334.252 C -127.595 333.124 -118.953 329.777 -111.357 322.309 M -91.583 315.886 C -92.037 315.868 -92.446 315.777 -92.783 315.658 L -93.083 315.604 L -93.338 315.441 L -93.511 315.368 L -93.684 315.231 C -94.029 315.022 -94.338 314.768 -94.63 314.486 L -94.84 314.223 C -95.148 313.85 -95.385 313.448 -95.548 313.039 C -95.612 312.93 -95.63 312.821 -95.676 312.712 C -96.095 311.684 -96.477 310.666 -96.85 309.655 C -101.606 321.436 -110.111 328.922 -117.435 333.451 C -117.871 339.109 -117.57 345.122 -116.517 351.49 C -112.769 350.143 -103.453 346.223 -95.421 337.846 C -95.394 337.817 -95.376 337.79 -95.349 337.764 C -95.566 329.303 -93.965 322.035 -91.418 315.896 C -91.474 315.886 -91.527 315.896 -91.583 315.886 M -90.199 257.943 C -97.977 255.214 -104.899 253.294 -111.758 251.512 C -111.858 251.73 -111.958 251.938 -112.059 252.157 C -118.453 266.666 -117.225 282.422 -108.375 298.958 C -105.527 296.693 -98.596 290.544 -94.057 280.92 C -90.609 273.561 -89.326 265.883 -90.199 257.943 M -68.832 266.675 C -74.682 263.965 -79.975 261.744 -84.906 259.871 C -84.087 274.18 -89.728 285.367 -95.43 292.882 C -94.647 298.349 -93.102 303.998 -90.791 309.811 C -87.743 307.918 -80.74 302.996 -74.927 294.81 C -75.654 283.43 -72.771 274.025 -68.832 266.675 M -351.484 365.68 C -352.349 349.834 -357.389 337.145 -366.466 327.84 C -366.594 330.377 -366.839 333.015 -367.24 335.762 C -367.258 335.862 -367.268 335.971 -367.285 336.08 C -367.33 336.473 -367.448 336.891 -367.64 337.29 L -367.794 337.572 C -367.968 337.882 -368.194 338.182 -368.459 338.445 L -368.577 338.6 L -368.723 338.699 L -368.904 338.91 L -369.159 339.01 C -369.433 339.209 -369.787 339.373 -370.178 339.491 C -370.314 339.537 -370.441 339.555 -370.569 339.583 C -370.787 339.637 -371.078 339.664 -371.352 339.682 C -371.46 339.691 -371.588 339.682 -371.696 339.674 L -371.915 339.664 C -372.234 339.628 -372.552 339.547 -372.844 339.438 L -372.87 339.445 C -373.88 339.146 -376.581 338.272 -380.093 336.6 C -379.956 341.229 -380.267 346.223 -381.112 351.6 C -379.01 353.691 -376.682 355.602 -374.107 357.313 C -364.82 363.487 -355.277 365.207 -351.484 365.68 M -321.521 385.283 C -326.788 369.327 -335.685 358.084 -348.001 351.744 C -346.981 356.138 -346.3 360.95 -346.063 366.244 C -346.063 366.354 -346.046 366.463 -346.046 366.572 C -346.018 366.99 -346.063 367.445 -346.173 367.9 L -346.264 368.209 C -346.391 368.573 -346.563 368.918 -346.782 369.246 L -346.863 369.437 L -346.991 369.555 L -347.155 369.801 L -347.392 369.982 C -347.638 370.229 -347.964 370.455 -348.347 370.674 C -348.475 370.738 -348.593 370.783 -348.72 370.838 C -348.947 370.929 -349.238 371.028 -349.511 371.092 C -349.629 371.119 -349.747 371.146 -349.865 371.156 L -350.084 371.184 C -350.43 371.211 -350.766 371.184 -351.103 371.138 L -351.111 371.146 C -352.904 370.965 -359.554 370.137 -367.422 366.863 C -361.764 374.658 -354.368 380.115 -345.271 383.154 C -334.811 386.629 -325.26 385.82 -321.521 385.283 M -316.118 387.475 L -316.154 387.666 L -316.236 387.82 L -316.328 388.103 L -316.509 388.321 C -316.683 388.621 -316.928 388.931 -317.237 389.221 C -317.346 389.321 -317.446 389.403 -317.556 389.484 C -317.737 389.631 -317.982 389.794 -318.237 389.932 C -318.347 389.995 -318.456 390.049 -318.574 390.076 L -318.766 390.158 C -319.083 390.286 -319.411 390.368 -319.739 390.386 L -319.766 390.395 C -321.367 390.668 -327.024 391.469 -334.411 390.759 C -334.311 390.85 -334.211 390.941 -334.12 391.031 C -329.398 393.115 -324.633 396.025 -320.029 400.064 C -318.101 400.838 -316.127 401.456 -314.099 401.947 C -306.539 397.863 -298.043 393.834 -289.028 390.213 C -298.007 380.498 -308.56 374.913 -320.529 373.558 C -318.929 376.851 -317.474 380.453 -316.209 384.419 C -316.172 384.528 -316.118 384.627 -316.091 384.729 C -315.964 385.119 -315.891 385.564 -315.882 386.02 L -315.882 386.338 C -315.918 386.72 -315.991 387.103 -316.118 387.475 M -390.754 302.105 C -390.799 302.188 -390.845 302.297 -390.899 302.379 C -391.081 302.733 -391.337 303.079 -391.663 303.396 L -391.882 303.605 C -392.183 303.844 -392.491 304.025 -392.828 304.197 L -392.982 304.298 L -393.156 304.344 L -393.401 304.461 L -393.684 304.488 C -394.011 304.57 -394.374 304.598 -394.802 304.58 C -394.938 304.57 -395.065 304.553 -395.192 304.534 C -395.42 304.488 -395.702 304.434 -395.958 304.344 C -396.085 304.315 -396.185 304.271 -396.293 304.217 L -396.476 304.133 C -396.767 303.998 -397.039 303.815 -397.285 303.598 L -397.304 303.588 C -398.159 302.951 -400.405 301.188 -403.144 298.367 C -403.334 299.25 -403.534 300.141 -403.762 301.041 C -401.915 309.236 -397.977 316.359 -391.918 322.309 C -384.323 329.777 -375.69 333.124 -372.225 334.252 C -369.669 315.678 -373.989 300.477 -385.023 289.079 C -385.042 289.07 -385.051 289.062 -385.06 289.043 C -386.415 293.209 -388.28 297.566 -390.754 302.105 M -409.22 280.92 C -404.689 290.544 -397.758 296.693 -394.902 298.958 C -386.051 282.422 -384.823 266.666 -391.228 252.157 C -391.318 251.938 -391.427 251.73 -391.518 251.512 C -398.376 253.294 -405.308 255.214 -413.085 257.943 C -413.949 265.883 -412.667 273.561 -409.22 280.92 M -411.857 315.896 C -409.319 322.035 -407.719 329.303 -407.928 337.764 C -407.91 337.79 -407.882 337.817 -407.854 337.846 C -399.832 346.223 -390.509 350.143 -386.761 351.49 C -385.705 345.122 -385.405 339.109 -385.852 333.451 C -393.165 328.922 -401.679 321.436 -406.427 309.655 C -406.801 310.666 -407.183 311.684 -407.609 312.712 C -407.655 312.821 -407.674 312.93 -407.736 313.039 C -407.892 313.448 -408.138 313.85 -408.446 314.223 L -408.656 314.486 C -408.938 314.768 -409.247 315.022 -409.603 315.231 L -409.766 315.368 L -409.938 315.441 L -410.202 315.604 L -410.502 315.658 C -410.839 315.777 -411.239 315.868 -411.703 315.886 C -411.757 315.896 -411.804 315.886 -411.857 315.896 M -418.371 259.871 C -423.31 261.744 -428.604 263.965 -434.444 266.675 C -430.514 274.025 -427.622 283.43 -428.35 294.81 C -422.546 302.996 -415.532 307.918 -412.494 309.811 C -410.175 303.998 -408.638 298.349 -407.846 292.882 C -413.55 285.367 -419.188 274.18 -418.371 259.871 M -385.341 249.928 L -386.078 250.119 C -386.233 250.156 -386.388 250.192 -386.542 250.237 C -382.722 258.926 -380.494 270.123 -383.521 283.485 C -375.317 291.063 -367.468 302.861 -366.485 320.57 C -359.89 326.139 -353.723 333.997 -349.901 345.067 C -340.679 348.843 -330.945 355.738 -323.485 368.127 C -311.424 368.691 -296.824 373.293 -283.799 388.176 C -275.993 385.246 -267.88 382.662 -259.729 380.644 C -256.064 378.196 -252.325 376.969 -248.504 376.969 C -244.202 376.969 -240.109 379.088 -236.27 382.6 C -230.584 384.236 -224.963 386.129 -219.486 388.176 C -206.451 373.293 -191.86 368.691 -179.799 368.127 C -172.331 355.738 -162.607 348.843 -153.374 345.067 C -149.554 333.997 -143.396 326.139 -136.791 320.57 C -135.809 302.861 -127.959 291.063 -119.754 283.485 C -122.783 270.123 -120.563 258.926 -116.743 250.237 C -116.898 250.192 -117.053 250.156 -117.207 250.119 L -117.935 249.928 C -119.153 249.619 -120.035 248.572 -120.136 247.327 C -120.172 246.963 -120.127 246.608 -120.026 246.271 C -120.055 246.063 -120.072 245.862 -120.072 245.635 C -120.072 234.847 -121.292 224.121 -123.684 213.671 C -123.702 213.615 -123.729 213.562 -123.747 213.506 C -126.176 204.256 -130.578 191.012 -134.937 182.288 C -135.409 181.332 -135.327 180.195 -134.727 179.313 C -134.309 178.713 -133.898 178.113 -133.472 177.513 C -147.434 168.344 -153.838 156.889 -156.521 146.554 C -171.767 141.213 -180.873 132.524 -186.275 123.628 C -194.653 123.301 -201.712 121.637 -207.661 119.144 C -214.274 138.138 -224.753 175.074 -230.758 231.309 C -230.758 231.309 -236.288 281.065 -234.905 292.736 L -234.941 292.736 C -234.933 294.455 -235.006 301.741 -237.033 301.741 L -238.152 301.741 C -220.087 307.746 -219.568 324.219 -219.56 324.42 L -219.514 326.957 L -249.604 326.957 C -249.375 327.044 -233.099 333.408 -249.614 364.691 C -266.12 333.408 -249.853 327.044 -249.625 326.957 L -279.715 326.957 L -279.669 324.42 C -279.669 324.219 -279.141 307.746 -261.076 301.741 L -262.186 301.741 C -264.224 301.741 -264.305 292.736 -264.305 292.736 C -264.296 292.618 -264.277 292.5 -264.277 292.381 L -264.277 292.372 L -264.269 292.372 C -263.041 280.083 -268.472 231.309 -268.472 231.309 C -274.647 173.428 -285.563 135.99 -292.122 117.524 C -298.744 120.898 -306.921 123.237 -317 123.628 C -322.413 132.534 -331.518 141.213 -346.755 146.554 C -349.438 156.889 -355.842 168.344 -369.796 177.513 C -369.377 178.113 -368.968 178.713 -368.549 179.313 C -367.949 180.195 -367.867 181.332 -368.35 182.288 C -372.707 191.012 -377.109 204.256 -379.538 213.506 C -379.548 213.562 -379.574 213.615 -379.593 213.671 C -381.994 224.121 -383.213 234.847 -383.213 245.635 C -383.213 245.862 -383.231 246.063 -383.258 246.271 C -383.158 246.608 -383.113 246.963 -383.14 247.327 C -383.24 248.572 -384.132 249.619 -385.341 249.928 M -397.807 115.75 C -397.179 115.696 -396.552 115.633 -395.941 115.561 C -395.569 115.523 -395.196 115.478 -394.832 115.433 C -391.134 114.972 -387.65 114.245 -384.376 113.271 C -382.228 112.631 -380.167 111.887 -378.201 111.029 C -378.056 110.558 -377.9 110.075 -377.737 109.593 C -376.236 105.172 -373.989 100.514 -370.66 96.094 C -366.239 90.227 -359.898 84.777 -350.839 80.894 C -350.794 80.824 -350.764 80.751 -350.722 80.682 C -350.647 80.558 -350.578 80.434 -350.516 80.309 C -350.476 80.228 -350.438 80.146 -350.403 80.063 C -350.328 79.887 -350.263 79.709 -350.211 79.529 C -350.196 79.482 -350.185 79.435 -350.172 79.388 C -350.122 79.195 -350.088 79.002 -350.063 78.81 C -350.057 78.756 -350.05 78.704 -350.046 78.651 C -350.023 78.412 -350.027 78.173 -350.04 77.936 C -354.148 76.657 -357.516 75.527 -360.132 74.609 C -360.144 74.601 -360.152 74.593 -360.163 74.584 C -360.163 74.584 -360.172 74.591 -360.175 74.595 L -360.184 74.592 L -360.339 74.747 C -360.354 74.763 -360.369 74.774 -360.384 74.79 C -365.435 82.45 -373.683 90.864 -386.75 95.266 C -386.789 95.279 -386.825 95.294 -386.865 95.308 C -386.943 95.333 -387.026 95.354 -387.104 95.38 C -387.906 95.645 -388.723 95.897 -389.563 96.13 L -389.563 96.132 C -390.361 96.349 -391.169 96.558 -391.994 96.748 C -394.231 100.824 -395.614 104.826 -396.479 108.2 L -396.479 108.209 C -397.324 111.484 -397.67 114.168 -397.807 115.75 M -344.444 95.311 L -344.444 95.283 C -344.235 93.792 -343.371 88.579 -340.688 82.267 C -341.697 82.576 -342.871 83.041 -344.235 83.677 C -345.617 84.132 -346.964 84.633 -348.265 85.178 C -350.647 86.16 -352.886 87.279 -354.969 88.544 C -360.463 91.854 -364.911 96.103 -368.305 101.288 C -369.551 103.188 -370.651 105.227 -371.615 107.383 C -371.643 107.454 -371.679 107.519 -371.706 107.591 C -372.288 108.919 -372.788 110.238 -373.217 111.53 C -373.563 112.558 -373.862 113.567 -374.116 114.56 C -375.817 121.072 -375.836 126.621 -375.718 129.223 C -375.317 129.131 -374.908 129.041 -374.517 128.939 C -373.325 128.649 -372.17 128.34 -371.033 128.004 C -370.087 127.73 -369.169 127.439 -368.259 127.121 C -363.292 125.43 -358.844 123.255 -354.924 120.6 C -354.505 119.416 -354.031 118.226 -353.486 117.024 C -350.875 111.166 -346.818 105.227 -340.578 100.142 C -340.925 100.133 -341.288 100.068 -341.661 99.96 L -341.942 99.869 C -342.271 99.732 -342.579 99.567 -342.871 99.351 L -343.034 99.268 L -343.152 99.141 L -343.38 98.986 L -343.525 98.759 C -343.744 98.531 -343.943 98.222 -344.117 97.858 C -344.171 97.739 -344.217 97.631 -344.263 97.503 C -344.336 97.294 -344.407 97.031 -344.463 96.767 C -344.49 96.657 -344.499 96.549 -344.508 96.439 L -344.517 96.239 C -344.535 95.921 -344.508 95.611 -344.444 95.311 M -339.404 95.156 C -338.432 95.147 -337.467 95.111 -336.521 95.065 C -335.156 95.002 -333.819 94.893 -332.511 94.757 C -332.109 94.711 -331.719 94.665 -331.327 94.62 C -324.005 93.701 -317.491 91.636 -311.825 88.435 L -311.815 88.435 C -311.36 88.18 -310.915 87.916 -310.47 87.643 C -316.938 86.497 -323.322 85.168 -329.608 83.649 C -331.518 83.194 -333.41 82.722 -335.293 82.222 C -335.42 82.477 -335.538 82.73 -335.647 82.985 L -335.647 82.994 C -338.031 88.262 -339.022 92.864 -339.404 95.156 M -283.335 93.674 C -283.389 93.354 -283.38 92.991 -283.326 92.592 C -283.307 92.464 -283.28 92.337 -283.244 92.21 C -283.188 92 -283.107 91.736 -282.998 91.491 C -282.989 91.455 -282.971 91.428 -282.962 91.399 C -289.411 90.79 -295.806 89.99 -302.128 89.026 C -304.702 90.689 -307.066 92.646 -309.223 94.884 C -310.323 96.012 -311.36 97.221 -312.353 98.495 C -312.415 98.585 -312.488 98.668 -312.553 98.759 L -312.553 98.769 C -318.674 106.818 -320.857 115.314 -321.549 118.726 C -320.976 118.734 -320.411 118.744 -319.848 118.734 C -317.938 118.726 -316.082 118.652 -314.271 118.498 C -306.612 117.88 -299.79 116.005 -293.832 112.886 C -289.738 110.747 -286.046 108.019 -282.779 104.708 C -281.715 103.644 -280.696 102.506 -279.724 101.307 C -279.068 100.496 -278.45 99.678 -277.877 98.868 C -279.005 98.186 -280.142 97.458 -281.288 96.694 C -281.369 96.639 -281.47 96.594 -281.552 96.53 C -281.87 96.321 -282.18 96.048 -282.452 95.712 L -282.635 95.466 C -282.844 95.184 -282.998 94.866 -283.126 94.52 L -283.217 94.365 L -283.244 94.192 L -283.344 93.938 Z M -158.777 96.439 C -158.777 96.549 -158.787 96.657 -158.814 96.767 C -158.868 97.031 -158.941 97.294 -159.023 97.503 C -159.06 97.631 -159.104 97.739 -159.16 97.858 C -159.341 98.222 -159.542 98.531 -159.76 98.759 L -159.896 98.986 L -160.124 99.141 L -160.242 99.268 L -160.406 99.351 C -160.696 99.567 -161.016 99.732 -161.334 99.869 L -161.625 99.96 C -161.988 100.068 -162.353 100.133 -162.698 100.142 C -156.468 105.227 -152.409 111.157 -149.8 117.016 C -149.253 118.216 -148.781 119.407 -148.354 120.6 C -144.441 123.255 -139.993 125.43 -135.018 127.131 C -134.117 127.439 -133.189 127.73 -132.243 128.004 C -131.105 128.34 -129.951 128.649 -128.759 128.939 C -128.368 129.041 -127.959 129.131 -127.559 129.223 C -127.44 126.621 -127.467 121.063 -129.178 114.55 C -129.433 113.559 -129.724 112.558 -130.069 111.53 C -130.496 110.238 -130.997 108.91 -131.579 107.582 C -131.615 107.519 -131.644 107.446 -131.67 107.383 C -132.635 105.227 -133.735 103.188 -134.981 101.288 C -138.374 96.111 -142.813 91.863 -148.299 88.553 C -150.391 87.288 -152.619 86.16 -155.003 85.178 L -155.012 85.178 C -156.313 84.633 -157.649 84.132 -159.042 83.677 C -160.406 83.041 -161.579 82.576 -162.589 82.267 C -159.914 88.579 -159.042 93.792 -158.832 95.283 L -158.832 95.311 C -158.768 95.611 -158.75 95.921 -158.759 96.239 Z M -92.51 91.728 C -93.047 89.845 -93.92 87.225 -95.294 84.277 C -96.858 80.902 -99.06 77.082 -102.143 73.426 C -105.437 69.523 -109.212 66.376 -113.469 63.965 C -119.763 66.994 -126.304 69.796 -133.034 72.361 L -133.044 72.361 C -134.508 72.935 -135.99 73.489 -137.474 74.025 C -136.801 74.953 -136.073 75.882 -135.291 76.809 C -135.072 77.073 -134.845 77.328 -134.617 77.592 C -129.351 83.55 -122.946 87.834 -115.479 90.426 C -115.015 90.591 -114.541 90.745 -114.068 90.891 C -112.168 91.491 -110.194 91.982 -108.156 92.364 C -106.683 92.637 -105.181 92.864 -103.636 93.02 C -99.987 93.419 -96.14 93.492 -92.11 93.256 C -92.21 92.828 -92.347 92.31 -92.51 91.728 M 35.358 34.93 L 27.262 37.649 C -5.14 48.52 -60.764 59.999 -107.155 62.155 C -96.294 69.851 -91.027 80.803 -88.681 87.488 C -72.898 96.257 -65.767 109.002 -62.684 120.289 C -62.465 120.235 -62.247 120.217 -62.037 120.217 C -60.973 120.217 -59.945 120.799 -59.437 121.8 C -53.587 133.08 -45.882 150.11 -41.853 162.721 C -41.598 163.513 -41.698 164.367 -42.115 165.086 C -34.639 176.875 -33.438 188.347 -34.721 197.916 C -34.065 198.379 -33.62 199.098 -33.512 199.926 C -32.592 207.23 -32.011 214.653 -31.792 221.957 C -31.71 224.34 -31.674 226.779 -31.674 229.217 C -31.674 229.78 -31.674 230.344 -31.683 230.918 C -31.619 231.154 -31.583 231.408 -31.592 231.662 C -31.893 247.592 -33.811 263.474 -37.295 278.891 C -37.423 279.428 -37.704 279.9 -38.077 280.283 C -38.623 298.54 -49.33 310.93 -56.271 317.096 C -57.28 341.266 -74.754 354.301 -82.44 358.876 C -87.989 375.486 -99.905 384.082 -109.766 388.484 C -116.279 397.172 -124.129 402.512 -131.824 405.759 C -140.229 417.894 -150.146 424.206 -159.651 427.227 C -159.687 427.254 -159.724 427.29 -159.76 427.316 C -170.521 435.295 -196.691 443.081 -213.801 445.119 C -222.67 449.375 -239.172 450.632 -249.242 450.632 C -256.5 450.632 -271.846 450.058 -282.197 445.629 C -297.998 445.564 -331.063 436.541 -343.525 427.316 C -343.562 427.29 -343.589 427.254 -343.626 427.227 C -353.141 424.206 -363.055 417.894 -371.46 405.759 C -379.146 402.512 -387.006 397.172 -393.52 388.484 C -403.38 384.082 -415.287 375.486 -420.845 358.876 C -428.522 354.301 -446.006 341.266 -447.006 317.096 C -453.956 310.93 -464.653 298.54 -465.208 280.283 C -465.58 279.9 -465.863 279.428 -465.981 278.891 C -469.474 263.482 -471.394 247.592 -471.693 231.662 C -471.703 231.408 -471.657 231.154 -471.603 230.918 L -471.603 229.217 C -471.603 226.77 -471.565 224.331 -471.493 221.966 C -471.275 214.653 -470.692 207.239 -469.766 199.926 C -469.665 199.098 -469.21 198.379 -468.564 197.916 C -469.847 188.347 -468.646 176.875 -461.16 165.086 C -461.578 164.367 -461.679 163.513 -461.433 162.721 C -457.394 150.11 -449.698 133.08 -443.85 121.8 C -443.331 120.799 -442.313 120.217 -441.238 120.217 C -441.03 120.217 -440.812 120.244 -440.593 120.299 C -437.51 109.011 -430.378 96.267 -414.605 87.488 C -412.23 80.739 -406.891 69.66 -395.83 61.955 C -441.43 59.38 -494.943 48.229 -526.48 37.649 L -534.577 34.93 L -497.709 22.003 L -508.779 -9.579 L -502.984 -7.487 C -473.604 3.119 -416.032 14.481 -377.173 14.481 C -347.265 14.481 -317.746 10.806 -291.821 3.875 L -281.261 1.045 L -304.957 24.732 C -288.001 29.763 -269.28 32.564 -249.605 32.564 C -229.938 32.564 -211.218 29.763 -194.263 24.732 L -217.959 1.045 L -207.397 3.875 C -181.482 10.806 -151.965 14.481 -122.046 14.481 C -83.187 14.481 -25.624 3.119 3.766 -7.487 L 9.561 -9.579 L -1.51 22.003 Z " fill="#231f20"/>
<path transform="matrix(1,0,0,-1,149.76029,402.56037)" d="M 0 0 C .556 .264 1.11 .518 1.665 .764 C 1.893 .873 2.111 .982 2.338 1.082 C 1.556 .728 .773 .363 0 0 " fill="#231f20"/>
<path transform="matrix(1,0,0,-1,189.52979,409.35627)" d="M 0 0 L 6.713 -17.064 L 10.579 -15.536 L 3.876 1.528 Z " fill="#231f20"/>
<path transform="matrix(1,0,0,-1,214.66257,404.41679)" d="M 0 0 L -.955 3.175 L -3.583 2.384 L -4.603 2.074 L -3.064 -3.029 C -2.956 -3.393 -2.847 -3.747 -2.737 -4.093 C -2.046 -6.331 -1.346 -8.341 -.518 -10.278 L -.591 -10.306 C -2 -8.568 -3.674 -6.686 -5.293 -5.157 L -10.852 .191 L -15.49 -1.21 L -10.205 -18.766 L -6.559 -17.665 L -8.141 -12.407 C -9.005 -9.542 -9.813 -7.05 -10.642 -4.775 L -10.532 -4.739 C -9.086 -6.549 -7.24 -8.441 -5.621 -10.023 L .192 -15.637 L 4.331 -14.391 L 1.975 -6.567 Z " fill="#231f20"/>
<path transform="matrix(1,0,0,-1,228.6802,405.69029)" d="M 0 0 C -.163 .027 -.326 .055 -.491 .082 C -.826 .128 -1.146 .182 -1.437 .237 C -3.283 .555 -4.156 .929 -4.356 1.892 C -4.438 2.256 -4.375 2.647 -4.147 3.002 C -4.029 3.193 -3.865 3.366 -3.647 3.539 C -3.283 3.812 -2.783 4.039 -2.128 4.175 C -.536 4.521 .756 4.349 1.574 4.185 C 1.656 4.166 1.738 4.157 1.811 4.139 L 1.984 7.596 C 1.529 7.696 1.02 7.769 .429 7.787 L .419 7.787 C -.472 7.832 -1.527 7.76 -2.783 7.486 C -4.12 7.205 -5.239 6.714 -6.121 6.086 C -6.176 6.049 -6.222 6.013 -6.275 5.977 C -8.077 4.63 -8.841 2.684 -8.404 .654 C -8.131 -.637 -7.44 -1.564 -6.421 -2.237 L -6.412 -2.237 C -5.357 -2.946 -3.938 -3.366 -2.282 -3.594 C 0 -3.875 1.002 -4.356 1.229 -5.448 C 1.483 -6.622 .665 -7.604 -1.199 -8.005 C -2.064 -8.195 -2.956 -8.241 -3.783 -8.187 C -4.593 -8.15 -5.339 -8.022 -5.93 -7.859 L -6.03 -11.389 C -4.902 -11.725 -2.765 -11.853 -.708 -11.406 C 1.074 -11.024 2.429 -10.379 3.411 -9.569 C 4.831 -8.414 5.458 -6.904 5.413 -5.339 C 5.413 -4.984 5.367 -4.63 5.286 -4.266 C 4.776 -1.874 3.103 -.546 0 0 " fill="#231f20"/>
<path transform="matrix(1,0,0,-1,249.40293,397.96757)" d="M 0 0 L -.52 3.439 L -6.014 2.611 L -11.18 1.828 L -14.481 1.328 L -14.154 -.809 L -13.954 -2.109 L -12.289 -1.855 L -12.28 -1.855 L -9.442 -1.427 L -9.061 -1.373 L -8.878 -2.601 L -8.869 -2.619 L -8.67 -3.947 L -7.432 -12.134 L -6.841 -16.055 L -2.729 -15.436 L -2.911 -14.217 L -4.948 -.745 L -4.366 -.654 Z " fill="#231f20"/>
<path transform="matrix(1,0,0,-1,258.21733,402.36997)" d="M 0 0 L -.9 8.697 L -5.039 8.269 L -3.147 -9.97 L .991 -9.542 L .127 -1.173 Z " fill="#231f20"/>
<path transform="matrix(1,0,0,-1,275.83738,394.71958)" d="M 0 0 L -.119 2.001 L -.138 2.292 L -.965 2.246 L -4.932 2.028 L -14.236 1.509 L -14.037 -1.965 L -9.097 -1.692 L -8.879 -5.531 L -8.77 -7.623 L -8.497 -12.462 L -8.415 -13.954 L -8.27 -16.52 L -4.73 -16.328 L -4.112 -16.292 L -4.267 -13.508 L -4.73 -5.194 L -4.813 -3.766 L -4.94 -1.455 L -1.757 -1.283 L .063 -1.183 L 0 -.01 Z " fill="#231f20"/>
<path transform="matrix(1,0,0,-1,291.13719,394.31037)" d="M 0 0 L -.082 -4.721 L -.091 -5.321 L -.155 -8.787 C -.209 -11.998 -1.428 -13.499 -3.603 -13.462 C -5.694 -13.427 -6.922 -11.808 -6.868 -8.679 L -6.804 -4.994 L -6.741 -.974 L -6.723 .036 L -6.723 .337 L -6.695 1.929 L -9.388 1.975 L -10.825 2.002 L -10.853 .564 L -10.907 -2.811 L -10.916 -3.438 L -10.944 -4.885 L -10.944 -5.203 L -10.998 -8.278 C -11.063 -11.762 -10.134 -14.081 -8.396 -15.4 C -7.223 -16.282 -5.686 -16.719 -3.821 -16.756 C -.437 -16.811 2.01 -15.545 3.184 -12.808 L 3.193 -12.808 C 3.666 -11.707 3.938 -10.37 3.975 -8.778 C 3.983 -8.714 3.983 -8.651 3.983 -8.587 L 4.03 -5.658 L 4.139 .473 L 4.157 1.747 L .027 1.81 Z " fill="#231f20"/>
<path transform="matrix(1,0,0,-1,299.89598,392.82698)" d="M 0 0 L 0 -.047 L -.309 -3.467 L 4.621 -3.913 L 4.14 -9.297 L 4.031 -10.471 L 3.294 -18.703 L 7.442 -19.075 L 8.77 -4.285 L 13.754 -4.73 L 14.064 -1.266 L .119 -.01 Z " fill="#231f20"/>
<path transform="matrix(1,0,0,-1,319.73588,394.88267)" d="M 0 0 L -1.282 .199 L -1.883 -3.713 L -1.892 -3.73 L -3.975 -17.266 L -4.075 -17.921 L 3.729 -19.121 L 7.487 -19.704 L 7.969 -16.547 L 7.978 -16.547 L 8.005 -16.338 L .556 -15.2 L .556 -15.191 L 1.219 -10.898 L 6.295 -11.672 L 7.887 -11.917 L 8.132 -10.308 L 8.396 -8.588 L 1.729 -7.56 L 2.311 -3.794 L 3.439 -3.967 L 6.813 -4.485 L 9.352 -4.876 L 9.652 -2.911 L 9.869 -1.52 L 5.186 -.802 Z " fill="#231f20"/>
<path transform="matrix(1,0,0,-1,353.1929,411.33869)" d="M 0 0 C -.864 -3.202 -3.057 -5.54 -5.886 -4.768 C -7.823 -4.248 -8.806 -2.556 -8.896 -.464 C -8.933 .4 -8.823 1.337 -8.56 2.292 C -8.142 3.865 -7.414 5.203 -6.468 6.095 C -5.912 6.631 -5.285 7.004 -4.585 7.168 L -4.575 7.177 C -3.967 7.332 -3.32 7.322 -2.629 7.141 C -1.137 6.731 -.272 5.676 .1 4.339 C .481 3.038 .399 1.474 0 0 M -.592 9.934 C -.919 10.061 -1.255 10.169 -1.61 10.27 C -6.805 11.68 -11.316 8.851 -12.808 3.365 C -12.808 3.356 -12.817 3.339 -12.817 3.329 C -13.317 1.455 -13.363 -.327 -12.98 -1.91 C -12.299 -4.794 -10.207 -7.014 -6.905 -7.904 C -2.156 -9.196 2.629 -7.022 4.238 -1.092 C 5.039 1.855 4.757 4.667 3.375 6.813 C 2.502 8.178 1.183 9.26 -.592 9.934 " fill="#231f20"/>
<path transform="matrix(1,0,0,-1,358.5591,422.58189)" d="M 0 0 L 3.902 -1.456 L 6.486 5.449 L 12.653 3.129 L 13.827 6.268 L 7.659 8.578 L 9.143 12.525 L 15.737 10.052 L 16.929 13.235 L 6.44 17.174 Z " fill="#231f20"/>
<path transform="matrix(1,0,0,-1,49.959505,434.2733)" d="M 0 0 L 4.244 -17.047 L 8.233 -16.271 L 3.99 .775 Z " fill="#231f20"/>
<path transform="matrix(1,0,0,-1,69.83841,430.48417)" d="M 0 0 L 1.201 -4.965 C 1.828 -7.548 2.464 -9.839 3.271 -12.045 L 3.192 -12.06 C 1.917 -10.285 .382 -8.349 -1.123 -6.749 L -6.268 -1.171 L -10.916 -2.039 L -6.781 -19.113 L -3.125 -18.43 L -4.365 -13.313 C -5.038 -10.526 -5.68 -8.104 -6.356 -5.873 L -6.252 -5.854 C -4.932 -7.699 -3.229 -9.659 -1.737 -11.313 L 3.637 -17.166 L 7.789 -16.392 L 3.654 .683 Z " fill="#231f20"/>
<path transform="matrix(1,0,0,-1,87.223209,442.19807)" d="M 0 0 C -.5 -.088 -1.054 -.159 -1.433 -.173 L -4.016 11.018 C -3.667 11.158 -3.107 11.336 -2.244 11.487 C 1.213 12.095 3.767 10.589 4.585 7.038 C 5.53 2.952 3.619 .609 0 0 M 4.326 13.83 C 2.343 14.749 .03 14.976 -3.35 14.383 C -5.313 14.038 -7.221 13.57 -8.633 13.085 L -4.756 -3.714 C -3.731 -3.666 -2.237 -3.535 -.141 -3.166 C 3.262 -2.568 5.951 -1.356 7.465 .467 C 8.846 2.162 9.555 4.637 8.798 7.909 C 8.102 10.93 6.463 12.832 4.326 13.83 " fill="#231f20"/>
<path transform="matrix(1,0,0,-1,98.394107,425.45198)" d="M 0 0 L 3.745 -17.139 L 7.761 -16.485 L 4.018 .654 Z " fill="#231f20"/>
<path transform="matrix(1,0,0,-1,114.3042,433.16877)" d="M 0 0 L .362 3.819 C .442 4.824 .481 6.191 .531 7.22 L .611 7.23 C 1.063 6.269 1.622 5.034 2.132 4.056 L 3.908 .521 Z M -2.453 9.832 L -4.641 -8.107 L -.467 -7.551 L -.035 -2.963 L 5.062 -2.284 L 7.27 -6.52 L 11.628 -5.938 L 2.828 10.536 Z " fill="#231f20"/>
<path transform="matrix(1,0,0,-1,138.61191,420.92457)" d="M 0 0 L .567 -5.042 C .862 -7.665 1.207 -10.001 1.73 -12.275 L 1.65 -12.279 C .603 -10.371 -.682 -8.269 -1.982 -6.505 L -6.411 -.359 L -11.168 -.627 L -9.217 -17.962 L -5.478 -17.752 L -6.062 -12.556 C -6.38 -9.728 -6.71 -7.262 -7.101 -4.979 L -6.994 -4.974 C -5.91 -6.957 -4.459 -9.103 -3.18 -10.92 L 1.443 -17.364 L 5.691 -17.126 L 3.742 .209 Z " fill="#231f20"/>
<path transform="matrix(1,0,0,-1,423.56889,429.36408)" d="M 0 0 C -2.343 .767 -3.359 1.242 -3.305 2.299 C -3.26 3.155 -2.343 3.958 -.531 4.008 C 1.279 4.056 2.571 3.589 3.296 3.307 L 4.36 6.427 C 3.315 6.851 1.827 7.188 -.314 7.131 C -4.649 7.014 -7.425 4.752 -7.573 1.857 C -7.703 -.635 -5.751 -2.09 -2.706 -3.04 C -.547 -3.685 .299 -4.291 .245 -5.322 C .188 -6.43 -.865 -7.188 -2.784 -7.24 C -4.569 -7.287 -6.296 -6.807 -7.367 -6.307 L -8.382 -9.501 C -7.367 -10.002 -5.309 -10.475 -3.196 -10.418 C 1.906 -10.28 4.365 -7.776 4.511 -4.931 C 4.636 -2.541 3.209 -1.02 0 0 " fill="#231f20"/>
<path transform="matrix(1,0,0,-1,430.48588,431.03297)" d="M 0 0 C -.592 -4.83 2.234 -8.625 8.594 -8.862 C 10.83 -8.944 12.6 -8.607 13.404 -8.308 L 13.145 -5.266 C 12.289 -5.537 10.867 -5.737 9.611 -5.69 C 5.9 -5.552 3.978 -3.332 4.394 .063 C 4.855 3.837 7.673 5.577 10.947 5.455 C 12.42 5.4 13.558 5.056 14.337 4.697 L 15.579 7.684 C 14.915 8.087 13.296 8.526 11.141 8.606 C 5.573 8.814 .707 5.786 0 0 " fill="#231f20"/>
<path transform="matrix(1,0,0,-1,446.2183,440.10038)" d="M 0 0 L 4.139 -.387 L 7.23 16.504 L 3.093 16.89 Z " fill="#231f20"/>
<path transform="matrix(1,0,0,-1,467.85209,428.49888)" d="M 0 0 L .666 3.123 L -10.5 4.48 L -14.089 -12.361 L -2.518 -13.768 L -1.854 -10.644 L -9.307 -9.737 L -8.455 -5.74 L -1.782 -6.551 L -1.121 -3.452 L -7.794 -2.642 L -7.05 .856 Z " fill="#231f20"/>
<path transform="matrix(1,0,0,-1,481.9908,432.13069)" d="M 0 0 C -.576 -2.545 -1.01 -4.825 -1.242 -7.081 L -1.322 -7.07 C -1.726 -5.063 -2.3 -2.829 -2.997 -.911 L -5.336 5.747 L -10.111 6.383 L -13.913 -10.427 L -10.157 -10.928 L -9.017 -5.89 C -8.396 -3.146 -7.908 -.745 -7.54 1.493 L -7.434 1.479 C -7.02 -.606 -6.297 -2.912 -5.636 -4.876 L -3.207 -11.855 L 1.061 -12.424 L 4.862 4.387 L 1.104 4.888 Z " fill="#231f20"/>
<path transform="matrix(1,0,0,-1,496.2427,443.8524)" d="M 0 0 C -3.604 .665 -5.135 3.16 -4.196 6.499 C -3.153 10.21 -.132 11.551 3.051 10.964 C 4.48 10.699 5.538 10.192 6.239 9.725 L 7.922 12.536 C 7.337 13.034 5.825 13.703 3.73 14.091 C -1.676 15.088 -6.902 12.748 -8.499 7.06 C -9.832 2.31 -7.666 -1.89 -1.49 -3.029 C .682 -3.43 2.462 -3.342 3.294 -3.158 L 3.52 -.076 C 2.64 -.227 1.219 -.225 0 0 " fill="#231f20"/>
<path transform="matrix(1,0,0,-1,517.3667,437.77519)" d="M 0 0 L 1.182 3.018 L -9.464 6.107 L -15.835 -10.161 L -4.806 -13.363 L -3.624 -10.347 L -10.729 -8.284 L -9.217 -4.422 L -2.855 -6.269 L -1.683 -3.275 L -8.045 -1.429 L -6.721 1.951 Z " fill="#231f20"/>
<path transform="matrix(1,0,0,-1,179.2398,516.21078)" d="M 0 0 L 0 -15.331 C -1.202 -18.396 -4.026 -20.438 -7.215 -20.438 C -11.36 -20.438 -14.727 -16.412 -14.727 -11.425 C -8.416 -11.425 -3.248 -8.477 -3.248 -4.808 C -3.305 -2.708 -5.949 -.662 -9.618 0 Z M -147.827 -3.908 C -147.827 -4.749 -148.368 -5.414 -149.032 -5.414 C -149.693 -5.414 -150.234 -4.749 -150.234 -3.908 L -150.234 2.702 C -150.234 3.544 -149.693 4.204 -149.032 4.204 C -148.368 4.204 -147.827 3.544 -147.827 2.702 Z M -147.827 -17.432 C -147.771 -18.938 -148.612 -20.136 -149.63 -20.136 C -150.955 -20.136 -152.037 -18.938 -152.037 -17.432 C -152.037 -15.93 -150.955 -14.731 -149.63 -14.731 L -147.827 -14.731 Z M -25.727 3.004 L -29.267 3.004 C -29.326 10.339 -36.421 16.228 -45.197 16.228 C -50.846 16.168 -55.413 12.982 -55.413 9.014 C -55.413 7.391 -54.572 5.468 -53.013 3.604 L -43.992 3.604 C -45.317 4.687 -46.039 6.67 -46.039 9.014 C -46.096 11.841 -44.477 14.121 -42.49 14.121 C -39.485 14.121 -37.082 9.134 -37.082 3.004 L -40.617 3.004 L -40.617 3.006 L -77.759 3.006 L -78.966 3.006 L -104.137 3.006 L -105.348 3.006 L -120.238 3.006 L -135.809 3.006 L -135.809 -.002 L -132.801 -.002 L -132.801 -12.324 L -140.012 -12.324 L -140.012 -.603 C -140.012 3.363 -144.045 6.611 -149.032 6.611 C -154.021 6.548 -158.05 3.363 -158.05 -.603 C -158.05 -4.572 -154.021 -7.814 -149.032 -7.814 L -147.827 -7.814 L -147.827 -12.324 L -149.63 -12.324 C -153.299 -12.324 -156.244 -14.611 -156.244 -17.432 C -156.184 -20.921 -152.458 -23.742 -147.827 -23.742 C -143.501 -23.742 -140.012 -20.921 -140.012 -17.432 L -140.012 -14.731 L -132.801 -14.731 L -132.801 -24.042 C -132.741 -25.367 -134.123 -26.449 -135.809 -26.449 L -135.809 -28.256 L -121.981 -28.256 L -121.981 -26.449 C -123.663 -26.449 -124.989 -25.367 -124.989 -24.042 L -124.989 -.002 L -120.238 -.002 L -120.238 .001 L -116.702 .001 L -116.702 -24.043 C -116.643 -25.368 -118.024 -26.45 -119.711 -26.45 L -119.711 -28.256 L -105.883 -28.256 L -105.883 -26.45 C -107.565 -26.45 -108.887 -25.368 -108.887 -24.043 L -108.887 .001 L -105.348 .001 L -104.137 .001 L -98.678 .001 C -93.87 .001 -89.961 -4.029 -89.961 -9.02 C -90.021 -13.526 -93.747 -17.133 -98.377 -17.133 C -100.36 -17.133 -102.163 -16.832 -103.785 -16.23 L -104.387 -18.037 C -102.768 -18.037 -100.3 -20.197 -96.574 -24.043 C -93.99 -26.75 -91.163 -28.256 -88.759 -28.256 C -85.271 -28.256 -81.908 -26.333 -79.742 -23.145 L -80.943 -21.643 C -82.028 -22.968 -83.711 -23.742 -85.454 -23.742 C -87.438 -23.81 -89.961 -22.12 -92.364 -19.239 C -85.57 -18.098 -80.583 -14.008 -80.583 -9.617 C -80.646 -4.689 -85.754 -.483 -92.364 .001 L -78.966 .001 L -77.759 .001 L -53.18 .001 L -53.18 -6.313 C -55.227 -4.93 -58.348 -4.209 -62.197 -4.209 C -70.192 -4.209 -76.622 -9.737 -76.622 -16.535 C -76.563 -20.801 -74.399 -25.068 -70.613 -28.256 L -63.398 -24.65 C -65.862 -22.661 -67.245 -18.995 -67.245 -14.729 C -67.245 -10.222 -64.18 -6.613 -60.395 -6.613 C -57.626 -6.613 -55.043 -7.457 -53.18 -9.02 L -53.18 -24.043 C -53.12 -25.368 -54.502 -26.45 -56.188 -26.45 L -56.188 -28.256 L -42.359 -28.256 L -42.359 -26.45 C -44.042 -26.45 -45.367 -25.368 -45.367 -24.043 L -45.367 .001 L -41.829 .001 L -41.829 0 L -37.082 0 L -37.082 -24.648 C -37.021 -25.667 -38.403 -26.448 -40.09 -26.448 L -40.09 -28.254 L -26.262 -28.254 L -26.262 -26.448 C -27.944 -26.508 -29.267 -25.667 -29.267 -24.648 L -29.267 0 L -25.727 0 L -24.516 0 L -18.936 0 C -15.45 0 -12.623 -2.164 -12.623 -4.808 C -12.623 -7.455 -15.45 -9.619 -18.936 -9.619 C -21.223 -9.679 -22.962 -9.438 -24.044 -9.018 C -24.107 -17.497 -18.154 -24.348 -10.82 -24.348 C -6.013 -24.408 -1.923 -22.302 0 -18.937 L 0 -24.044 C 0 -25.366 -1.445 -26.448 -3.248 -26.448 L -3.248 -28.254 L 10.82 -28.254 L 10.82 -26.448 C 9.134 -26.448 7.815 -25.366 7.815 -24.044 L 7.815 0 L 12.563 0 L 12.563 3.004 L -24.516 3.004 Z " fill="#231f20"/>
<path transform="matrix(1,0,0,-1,218.77689,512.60629)" d="M 0 0 C -.481 .541 -.241 1.683 -.241 4.206 C -.241 7.875 2.704 10.819 6.31 10.819 C 13.344 10.819 19.597 6.493 21.939 0 L 29.755 0 C 26.871 7.936 17.609 13.224 6.609 13.224 C -2.344 13.224 -9.618 9.197 -9.618 4.206 C -9.555 2.884 -8.957 1.382 -7.815 0 Z " fill="#231f20"/>
<path transform="matrix(1,0,0,-1,329.5806,539.0536)" d="M 0 0 C -1.319 0 -2.04 3.489 -2.04 7.813 C -2.04 12.442 -1.439 16.229 0 16.229 C 1.445 16.169 1.806 12.442 1.806 7.813 C 1.806 3.489 1.325 0 0 0 M -84.062 4.205 C -85.685 2.646 -87.607 1.798 -89.474 1.798 C -92.898 1.864 -95.723 5.046 -95.723 9.016 C -95.663 12.981 -92.898 16.229 -89.474 16.229 C -87.551 16.29 -85.563 15.386 -84.062 13.823 Z M -12.37 25.849 L -28.468 25.849 L -29.684 25.849 L -71.499 25.849 L -72.709 25.849 L -106.054 25.849 L -106.054 25.85 L -123.367 25.85 L -123.367 22.842 L -118.619 22.842 L -118.619 -1.202 C -118.557 -2.524 -119.938 -3.605 -121.624 -3.605 L -121.624 -5.412 L -107.8 -5.412 L -107.8 -3.605 C -109.482 -3.605 -110.804 -2.524 -110.804 -1.202 L -110.804 22.842 L -106.054 22.842 L -106.054 22.844 L -84.062 22.844 L -84.062 16.229 C -85.984 18.514 -89.293 19.836 -93.079 19.836 C -99.689 19.775 -105.104 14.965 -105.104 9.016 C -105.041 3.063 -99.689 -1.808 -93.079 -1.808 C -89.293 -1.808 -85.984 -.482 -84.062 1.798 L -84.062 -1.2 C -84.002 -2.525 -85.384 -3.607 -87.066 -3.607 L -87.066 -5.413 L -73.245 -5.413 L -73.245 -3.607 C -74.928 -3.607 -76.25 -2.525 -76.25 -1.2 L -76.25 22.844 L -72.709 22.844 L -71.499 22.844 L -41.033 22.844 L -41.033 18.033 C -47.523 18.033 -53.776 20.437 -60.267 20.437 C -65.555 20.437 -69.885 17.492 -69.885 13.823 C -69.885 10.518 -66.396 7.813 -62.069 7.813 L -56.962 7.813 C -54.498 7.813 -52.455 6.071 -52.455 3.904 C -52.512 1.083 -55.699 -1.2 -59.666 -1.2 C -63.933 -1.2 -67.541 -.358 -69.885 1.2 L -71.09 -.899 C -67.901 -2.048 -65.134 -4.031 -62.975 -6.611 C -60.747 -9.259 -57.563 -10.818 -54.258 -10.818 C -51.733 -10.818 -49.326 -9.319 -47.944 -6.912 L -49.146 -5.714 C -50.408 -6.428 -51.072 -6.795 -51.493 -6.795 C -53.115 -6.735 -54.918 -5.59 -56.36 -3.607 L -53.053 -3.607 C -47.523 -3.547 -43.077 -.358 -43.077 3.604 C -43.077 7.272 -46.202 10.218 -50.048 10.218 L -57.262 10.218 C -59.064 10.218 -60.511 11.844 -60.511 13.823 C -60.511 15.806 -58.645 17.432 -56.36 17.432 C -51.192 17.432 -46.262 15.028 -41.033 15.028 L -41.033 -1.2 C -40.97 -2.525 -42.353 -3.607 -44.038 -3.607 L -44.038 -5.413 L -30.214 -5.413 L -30.214 -3.607 C -31.893 -3.607 -33.218 -2.525 -33.218 -1.2 L -33.218 22.844 L -29.684 22.844 L -28.468 22.844 L -24.937 22.844 L -24.937 -1.2 C -24.876 -2.525 -26.259 -3.607 -27.944 -3.607 L -27.944 -5.413 L -14.116 -5.413 L -14.116 -3.607 C -15.799 -3.607 -17.121 -2.525 -17.121 -1.2 L -17.121 22.844 L -13.581 22.844 L -13.581 22.842 L 16.234 22.842 L 16.234 14.727 C 11.784 17.311 6.195 18.632 0 18.632 C -6.307 18.575 -11.422 13.765 -11.422 7.813 C -11.422 2.164 -6.307 -2.406 0 -2.406 C 6.195 -2.406 11.184 2.164 11.184 7.813 C 11.184 10.997 9.561 13.825 6.917 15.327 C 11.424 14.546 14.608 13.404 16.234 12.022 L 16.234 -1.201 C 16.291 -2.523 14.909 -3.605 13.227 -3.605 L 13.227 -5.411 L 27.051 -5.411 L 27.051 -3.605 C 25.368 -3.605 24.047 -2.523 24.047 -1.201 L 24.047 22.842 L 28.794 22.842 L 28.794 25.847 L -12.37 25.847 Z " fill="#231f20"/>
<path transform="matrix(1,0,0,-1,408.8951,507.4969)" d="M 0 0 C 1.986 0 3.609 1.623 3.609 3.605 C 3.609 5.592 1.986 7.215 0 7.215 C -1.983 7.215 -3.605 5.592 -3.605 3.605 C -3.605 1.623 -1.983 0 0 0 " fill="#231f20"/>
<path transform="matrix(1,0,0,-1,436.24473,539.9559)" d="M 0 0 C -1.803 -.063 -4.207 1.626 -6.61 4.508 C .184 5.772 5.171 9.919 5.171 14.426 C 5.171 19.173 -.237 23.263 -7.211 23.743 L 12.626 23.743 L 12.626 26.751 L -19.594 26.751 L -63.459 26.751 L -63.459 23.746 L -57.39 23.746 C -52.222 23.746 -48.072 19.716 -48.072 14.726 C -48.013 10.398 -52.222 6.913 -57.39 6.913 C -59.313 6.854 -60.815 7.09 -61.896 7.515 L -62.498 5.708 C -60.274 4.867 -57.871 3.007 -55.587 .303 C -53 -2.762 -50.056 -4.511 -47.472 -4.511 C -44.166 -4.567 -40.737 -2.762 -38.153 .303 L -39.656 1.802 C -40.561 .66 -42.363 .003 -44.467 .003 C -45.849 -.064 -48.072 1.625 -50.476 4.506 C -43.923 4.807 -38.694 9.017 -38.694 14.128 C -38.758 19.056 -43.866 23.262 -50.476 23.746 L -31.243 23.746 L -31.243 10.822 C -32.325 9.798 -33.587 9.257 -34.849 9.257 C -36.171 9.257 -37.613 9.678 -39.055 10.519 L -39.656 8.115 C -38.274 7.273 -36.591 6.854 -34.849 6.854 C -33.587 6.913 -32.325 7.21 -31.243 7.814 L -31.243 -.298 C -31.18 -1.623 -32.565 -2.705 -34.248 -2.705 L -34.248 -4.511 L -20.42 -4.511 L -20.42 -2.705 C -22.103 -2.705 -23.428 -1.623 -23.428 -.298 L -23.428 23.746 L -19.594 23.746 L -19.594 23.743 L -14.426 23.743 C -8.777 23.684 -4.207 19.958 -4.207 15.327 C -4.207 10.7 -8.657 6.911 -14.125 6.911 C -15.624 6.854 -16.949 7.091 -18.031 7.516 L -18.632 5.706 C -16.409 4.868 -14.005 3.009 -11.718 .301 C -9.134 -2.764 -6.189 -4.51 -3.605 -4.51 C -.898 -4.57 2.224 -2.764 4.811 .301 L 3.608 2.101 C 2.467 .778 1.145 0 0 0 " fill="#231f20"/>
<path transform="matrix(1,0,0,-1,445.0845,529.6161)" d="M 0 0 C -1.265 0 -2.527 .36 -3.729 1.081 L -4.63 -1.021 C -3.067 -1.927 -1.502 -2.404 -.12 -2.404 C 1.683 -2.404 3.186 -2.047 4.387 -1.325 L 3.786 1.081 C 2.581 .36 1.263 0 0 0 " fill="#231f20"/>
<path transform="matrix(1,0,0,-1,516.94497,539.0536)" d="M 0 0 C -1.319 0 -2.04 3.489 -2.04 7.813 C -2.04 12.442 -1.439 16.229 0 16.229 C 1.445 16.169 1.806 12.442 1.806 7.813 C 1.806 3.489 1.325 0 0 0 M -57.265 16.53 L -57.265 22.54 C -57.204 23.682 -55.819 24.646 -54.08 24.646 C -52.514 24.583 -51.252 23.682 -51.252 22.54 L -51.252 16.53 C -51.252 15.386 -52.514 14.424 -54.08 14.424 C -55.819 14.487 -57.265 15.386 -57.265 16.53 M 28.794 22.842 L 28.794 25.847 L -12.37 25.847 L -12.37 25.849 L -28.471 25.849 L -43.437 25.849 L -43.437 22.841 L -41.036 22.841 L -41.036 6.913 C -41.935 3.904 -45.724 1.798 -50.354 1.798 C -55.161 1.798 -59.067 4.746 -59.067 8.415 C -50.411 8.415 -43.437 13.522 -43.437 19.836 C -43.437 23.806 -48.548 27.047 -54.857 27.047 C -60.51 26.99 -65.08 23.806 -65.08 19.836 C -65.08 15.506 -60.51 12.021 -54.857 12.021 C -56.183 10.879 -58.887 10.218 -62.372 10.218 C -64.72 10.218 -66.462 10.519 -67.483 11.119 C -67.544 3.487 -61.591 -2.705 -54.26 -2.705 C -48.248 -2.648 -43.316 -.659 -41.036 2.706 L -41.036 -1.2 C -40.973 -2.525 -42.355 -3.606 -44.041 -3.606 L -44.041 -5.413 L -30.217 -5.413 L -30.217 -3.606 C -31.896 -3.606 -33.221 -2.525 -33.221 -1.2 L -33.221 22.841 L -28.471 22.841 L -28.471 22.844 L -24.937 22.844 L -24.937 -1.2 C -24.876 -2.525 -26.259 -3.607 -27.944 -3.607 L -27.944 -5.413 L -14.116 -5.413 L -14.116 -3.607 C -15.799 -3.607 -17.121 -2.525 -17.121 -1.2 L -17.121 22.844 L -13.581 22.844 L -13.581 22.842 L 16.234 22.842 L 16.234 14.727 C 11.784 17.311 6.195 18.632 0 18.632 C -6.307 18.575 -11.422 13.765 -11.422 7.813 C -11.422 2.164 -6.307 -2.406 0 -2.406 C 6.195 -2.406 11.184 2.164 11.184 7.813 C 11.184 10.997 9.561 13.825 6.917 15.327 C 11.424 14.546 14.608 13.404 16.234 12.022 L 16.234 -1.201 C 16.291 -2.523 14.909 -3.605 13.227 -3.605 L 13.227 -5.411 L 27.051 -5.411 L 27.051 -3.605 C 25.368 -3.605 24.047 -2.523 24.047 -1.201 L 24.047 22.842 Z " fill="#231f20"/>
</g>
<g id="Layer-1" data-name="Orignal Logo">
</g>
</g>
</g>
</svg>
